<svg width="233" height="250" viewBox="0 0 233 250" fill="none" xmlns="http://www.w3.org/2000/svg">
<g clip-path="url(#clip0_311_231)">
<path d="M166.126 161.033V163.3C172.809 163.367 179.313 163.369 186.017 163.3V161.043C186.017 138.164 186.017 115.283 186.017 92.4041C186.017 88.8354 185.883 85.2829 185.374 81.737C184.35 74.6013 182.309 67.8323 178.633 61.5876C173.707 53.2217 166.658 47.2885 157.713 43.7247C149.879 40.604 141.681 39.5735 133.248 40.2826C128.651 40.6689 124.17 41.4511 119.794 42.923C111.484 45.7176 104.512 50.3687 99.2948 57.5044C98.9262 58.0092 98.53 58.4928 97.887 59.3172V0H77.8053V67.537H76.6785V68.3484H77.8053V68.5983C81.4862 68.5983 85.0453 68.5724 88.6028 68.6064C92.1457 68.6405 95.695 68.4571 99.3532 68.733C99.4555 73.045 99.3289 77.1995 99.5156 81.3443C99.5903 81.182 99.6617 81.0181 99.7348 80.8542V82.9379H100.547V78.9132C101.048 77.6669 101.532 76.4254 102.109 75.2293C105.971 67.2091 112.154 61.7872 120.701 59.2604C127.445 57.2675 134.318 57.0419 141.2 58.5398C152.779 61.0601 160.256 68.1147 163.89 79.3254C165.556 84.465 166.126 89.7718 166.126 95.1516C166.126 117.112 166.126 139.071 166.126 161.032V161.033Z" fill="white"/>
<path d="M232.307 211.801C232.633 208.406 232.641 205.285 231.574 202.273C229.938 197.656 226.939 194.313 222.277 192.554C219.122 191.363 215.921 191.087 212.582 191.58C207.141 192.384 202.89 194.983 200.387 199.896C197.401 205.754 197.389 211.845 199.823 217.931C201.247 221.491 203.73 224.177 207.13 225.862C211.839 228.194 216.778 228.408 221.78 226.835C225.494 225.669 228.337 223.372 230.271 219.998C230.901 218.898 231.558 217.775 231.652 216.29C230.112 216.29 228.658 216.353 227.213 216.271C226.002 216.201 225.093 216.396 224.762 217.754C224.664 218.151 224.336 218.5 224.086 218.851C222.518 221.05 220.285 222.097 217.703 222.593C213.566 223.388 208.422 221.722 206.014 217.717C204.954 215.951 204.261 214.063 204.336 211.803H232.305L232.307 211.801ZM204.462 205.728C205.41 199.988 210.051 196.408 215.073 196.454C218.606 196.486 221.664 197.436 224.041 200.136C225.685 202.004 226.322 204.213 226.267 206.843H204.509C204.49 206.438 204.407 206.071 204.464 205.728H204.462Z" fill="white"/>
<path d="M75.2576 225.572C75.2625 219.243 75.2592 212.916 75.2479 206.587C75.2446 204.472 74.9978 202.388 74.3207 200.374C73.0056 196.457 70.4694 193.661 66.5774 192.211C63.7847 191.171 60.9026 191.054 57.967 191.604C55.2457 192.114 52.8362 193.175 50.9023 195.204C50.5565 195.566 50.1944 195.91 49.8388 196.264C49.7284 196.218 49.6196 196.173 49.5092 196.129V179.715H43.8718C43.5 181.223 43.4919 225.558 43.8621 227.179H49.4167C49.4719 226.772 49.5742 226.36 49.5742 225.949C49.5709 220.269 49.5433 214.591 49.5466 208.911C49.5466 206.858 49.6245 204.808 50.2951 202.83C51.1134 200.415 52.5618 198.566 54.9031 197.456C56.9278 196.497 59.0727 196.294 61.2355 196.593C64.0964 196.989 66.4475 198.308 67.891 200.929C68.7661 202.517 69.2451 204.227 69.2549 206.046C69.289 212.536 69.3052 219.028 69.3409 225.517C69.3442 226.079 69.4302 226.64 69.4773 227.202H75.1293C75.1781 226.619 75.2592 226.097 75.2592 225.574L75.2576 225.572Z" fill="white"/>
<path d="M117.059 216.251C118.516 212.205 118.545 208.051 117.433 203.969C116.043 198.867 112.964 195.016 108.009 192.911C104.677 191.496 101.228 191.046 97.5735 191.566C92.5758 192.275 88.614 194.553 85.6978 198.62C83.868 201.171 82.9555 204.081 82.6421 207.212C82.2232 211.407 82.7541 215.443 84.7983 219.14C88.1269 225.161 93.5078 227.691 100.673 227.832C101.659 227.704 103.128 227.639 104.534 227.304C110.654 225.852 114.91 222.222 117.058 216.251H117.059ZM112.024 209.523C112.018 213.45 111.009 216.96 107.954 219.693C103.489 223.685 94.9772 223.689 91.069 218.212C89.8204 216.464 89.0719 214.505 88.7861 212.394C88.3298 209.018 88.5166 205.714 90.0753 202.587C92.3712 197.978 97.3932 196.021 101.836 196.636C108.668 197.582 111.857 203.099 112.024 208.388C112.036 208.766 112.024 209.145 112.024 209.523Z" fill="white"/>
<path d="M156.937 227.208V192.065H151.222C151.189 192.559 151.144 192.932 151.142 193.304C151.127 198.925 151.129 204.547 151.101 210.168C151.095 211.355 151.061 212.551 150.925 213.727C149.932 222.238 142.264 223.946 136.623 221.629C133.119 220.19 131.541 217.122 131.452 213.479C131.293 207.051 131.37 200.616 131.34 194.185C131.336 193.461 131.265 192.736 131.226 192.051H125.55C125.512 192.421 125.462 192.682 125.462 192.945C125.459 199.323 125.454 205.702 125.467 212.08C125.468 213.159 125.485 214.248 125.616 215.318C126.162 219.792 128.07 223.45 132.075 225.795C134.723 227.345 137.61 227.811 140.64 227.694C144.496 227.544 147.771 226.186 150.324 223.226C150.455 223.073 150.637 222.963 151.059 222.617C151.106 224.292 151.147 225.709 151.189 227.208H156.939H156.937Z" fill="white"/>
<path d="M168.855 224.516C172.148 227.145 176.017 227.898 180.122 227.77C183.043 227.679 185.808 227.004 188.2 225.271C191.09 223.179 192.483 220.311 192.139 216.722C191.814 213.34 189.87 211.173 186.881 209.699C184.53 208.541 182.025 207.939 179.557 207.168C177.61 206.559 175.622 205.923 173.856 204.936C170.696 203.172 170.789 199.318 173.895 197.487C176.079 196.201 178.441 196.265 180.8 196.726C183.28 197.212 184.931 198.722 185.717 201.147C185.861 201.593 186.001 202.04 186.123 202.426H191.802C191.716 199.086 190.476 196.447 188.053 194.367C185.878 192.499 183.257 191.734 180.471 191.439C176.647 191.032 173.052 191.702 169.769 193.774C164.848 196.879 164.68 203.289 167.304 206.723C168.735 208.596 170.727 209.688 172.895 210.425C175.085 211.17 177.334 211.746 179.552 212.41C181.309 212.935 183.1 213.39 184.619 214.489C186.404 215.779 186.975 217.937 185.803 219.763C185.251 220.623 184.347 221.387 183.429 221.855C180.713 223.239 177.874 223.038 175.104 221.972C173.263 221.262 171.911 219.988 171.308 218.031C171.185 217.63 171.003 217.247 170.808 216.754C169.027 216.754 167.303 216.748 165.58 216.764C165.384 216.765 165.19 216.89 164.895 216.994C165.195 220.081 166.468 222.611 168.857 224.518L168.855 224.516Z" fill="white"/>
<path d="M21.439 201.133C20.8691 201.133 20.3008 201.048 19.5539 200.988V187.358H13.9782V201.005C13.4521 201.058 13.0884 201.128 12.7263 201.128C9.21269 201.133 5.69741 201.12 2.18376 201.13C1.62197 201.131 1.05855 201.227 0.5 201.277V206.206C5.01059 206.311 9.41402 206.156 14.0367 206.302V220.088H19.489C19.5198 219.476 19.5669 218.95 19.5685 218.424C19.575 215.016 19.5637 211.608 19.5799 208.202C19.5832 207.582 19.6887 206.962 19.7553 206.248C24.3487 206.232 28.7553 206.256 33.1653 206.233V201.267C32.6522 201.216 32.2349 201.138 31.8176 201.136C28.3575 201.13 24.8975 201.142 21.439 201.134V201.133Z" fill="white"/>
<path d="M120.01 239.114C119.084 239.486 118.357 240.349 117.54 240.985C115.775 238.434 113.016 237.851 110.193 240.317C110.006 239.638 109.62 239.222 109.035 239.069C109.029 242.634 108.986 246.146 109.071 249.687C110.04 249.715 109.995 249.184 109.996 248.707C110.003 247.141 109.952 245.573 110.021 244.009C110.055 243.215 110.19 242.389 110.469 241.649C110.956 240.362 112.456 239.57 113.88 239.693C115.34 239.82 116.502 240.824 116.783 242.298C116.903 242.929 116.9 243.588 116.905 244.234C116.916 245.747 116.895 247.259 116.899 248.77C116.899 249.262 116.876 249.809 117.787 249.596C117.813 249.156 117.863 248.686 117.866 248.213C117.878 246.863 117.8 245.508 117.896 244.164C117.959 243.269 118.137 242.337 118.482 241.513C119.026 240.216 120.537 239.507 121.956 239.688C123.288 239.859 124.291 240.742 124.614 242.15C124.782 242.881 124.856 243.645 124.866 244.396C124.887 245.852 124.817 247.309 124.822 248.765C124.822 249.096 124.97 249.426 125.051 249.755C125.194 249.755 125.335 249.755 125.478 249.755C125.587 249.481 125.783 249.21 125.788 248.934C125.834 246.991 125.936 245.042 125.835 243.106C125.662 239.789 122.965 237.926 120.006 239.112L120.01 239.114Z" fill="white"/>
<path d="M209.244 235.684C209.143 235.454 208.814 235.324 208.346 234.969V240.886C204.912 238.404 202.106 238.322 200.033 240.475C198.276 242.299 198.161 246.098 199.851 248.117C200.551 248.953 201.416 249.534 202.551 249.763C204.795 250.216 206.644 249.594 208.236 247.668C208.275 248.414 208.242 248.847 208.341 249.25C208.387 249.438 208.667 249.612 208.879 249.69C208.95 249.716 209.207 249.441 209.255 249.269C209.325 249.018 209.289 248.735 209.289 248.466C209.294 244.524 209.297 240.584 209.297 236.642C209.297 236.319 209.364 235.959 209.244 235.683V235.684ZM208.291 244.466C208.197 247.767 205.526 249.75 202.468 248.774C202.118 248.662 201.76 248.502 201.475 248.276C199.812 246.96 199.419 245.209 199.802 243.205C200.185 241.201 201.463 240.152 203.402 239.797C206.011 239.32 208.374 241.575 208.291 244.466Z" fill="white"/>
<path d="M55.171 239.648C51.9626 237.666 47.9586 239.365 47.2474 243.069C46.5103 246.902 48.8711 250.938 54.0913 249.692C55.8822 249.263 57.1 247.754 56.9392 246.235C56.228 246.05 56.1858 246.67 55.952 247.056C54.9275 248.752 53.182 249.438 51.2271 248.909C49.3274 248.395 48.3905 247.134 48.3239 244.877H57.0935C57.6569 242.652 56.8889 240.709 55.1694 239.649L55.171 239.648ZM48.3775 243.831C48.3337 241.512 49.9314 239.756 52.1022 239.696C54.5378 239.63 56.1972 241.228 56.1988 243.831H48.3775Z" fill="white"/>
<path d="M138.075 239.692C134.558 237.452 130.156 239.726 129.953 243.914C129.917 244.658 130.018 245.428 130.184 246.157C130.65 248.207 131.981 249.46 134.027 249.804C136.16 250.162 138.131 249.781 139.456 247.848C139.749 247.421 139.791 246.822 139.95 246.303C139.827 246.237 139.702 246.168 139.578 246.102C139.354 246.334 139.041 246.526 138.919 246.803C138.122 248.603 135.982 249.62 133.548 248.75C131.996 248.195 131.078 246.72 131.226 244.839H139.976C140.41 242.548 139.679 240.711 138.076 239.692H138.075ZM139.109 243.82H131.198C131.062 241.581 132.512 239.854 134.769 239.724C137.238 239.581 139.234 241.194 139.111 243.82H139.109Z" fill="white"/>
<path d="M43.0989 244.875C43.9757 242.17 42.3764 239.49 39.7314 239.024C35.9872 238.366 33.4429 240.302 33.261 244.093C33.1587 246.243 33.7513 248.242 35.8248 249.313C37.7083 250.286 39.6827 250.243 41.5061 249.06C42.4998 248.416 43.219 247.545 43.2028 246.258C42.2059 246.068 42.2254 246.803 41.9656 247.213C40.9719 248.779 39.0494 249.438 37.1416 248.841C35.2809 248.259 34.3862 246.981 34.4593 244.873H43.0989V244.875ZM38.2441 239.701C40.4328 239.503 42.1133 241.09 42.4267 243.827H34.4853C34.3732 241.488 35.8215 239.92 38.2441 239.701Z" fill="white"/>
<path d="M158.178 239.228C154.594 238.072 151.235 239.926 151.082 243.88C151.054 244.575 151.089 245.292 151.231 245.969C151.616 247.793 152.683 249.114 154.487 249.65C156.388 250.213 158.262 250.054 159.817 248.697C160.512 248.092 161.18 247.332 160.925 246.255C160.244 246.089 160.132 246.532 159.941 246.928C159.196 248.467 157.874 249.064 156.249 249.074C153.844 249.088 152.176 247.353 152.316 244.872H161.053C161.542 242.004 160.498 239.977 158.174 239.229L158.178 239.228ZM152.373 243.817C152.082 241.672 153.558 239.945 155.838 239.718C158.265 239.478 160.067 241.131 160.206 243.817H152.371H152.373Z" fill="white"/>
<path d="M104.192 239.995C104.19 239.692 104.109 239.39 104.059 239.055C102.661 238.986 103.64 240.318 102.896 240.69C101.815 239.735 100.649 238.861 99.0121 238.888C97.4225 238.916 96.0116 239.296 94.9367 240.487C93.1165 242.504 93.1247 246.538 94.9789 248.403C95.8184 249.249 96.877 249.839 98.1142 249.917C100.019 250.039 101.688 249.476 103.049 247.83C103.198 248.606 103.302 249.145 103.399 249.653C104.309 249.76 104.213 249.195 104.213 248.723C104.213 245.813 104.206 242.903 104.192 239.993V239.995ZM100.831 248.603C99.2411 249.387 97.5849 249.234 96.1431 248.072C94.3262 246.607 94.0908 243.015 95.6706 241.17C97.1335 239.463 100.082 239.302 101.772 240.865C102.774 241.79 103.209 242.978 103.211 244.335C103.211 246.204 102.516 247.772 100.829 248.604L100.831 248.603Z" fill="white"/>
<path d="M19.0002 243.089C18.3102 242.796 17.5779 242.603 16.8684 242.353C16.1604 242.103 15.4314 241.891 14.7576 241.568C13.7736 241.097 13.3726 240.224 13.4456 239.171C13.5138 238.176 14.0578 237.483 14.9686 237.05C16.6573 236.247 18.6073 236.724 19.6806 238.277C19.9923 238.73 20.1807 239.276 20.9194 238.767C20.8545 238.512 20.8334 238.235 20.7197 238.006C19.6367 235.838 16.5907 235.08 14.2364 236.365C12.9537 237.066 12.4373 238.21 12.4698 239.585C12.5006 240.919 13.0868 242.003 14.3922 242.512C15.3924 242.904 16.4348 243.183 17.4529 243.528C17.9059 243.682 18.367 243.837 18.7827 244.065C19.7212 244.583 20.2001 245.414 20.0686 246.48C19.9339 247.571 19.3315 248.353 18.268 248.764C16.2838 249.53 14.5432 248.91 13.4619 247.04C13.2735 246.712 13.03 246.417 12.8124 246.107C12.6728 246.187 12.5315 246.268 12.3919 246.347C12.2733 247.301 12.6906 248.059 13.3839 248.712C14.6991 249.95 17.2986 250.301 19.0051 249.445C20.3154 248.788 21.0737 247.736 21.0997 246.239C21.1256 244.716 20.3755 243.671 19.0002 243.09V243.089Z" fill="white"/>
<path d="M226.413 239.122C224.684 238.578 221.884 238.815 220.399 240.821C219.4 242.169 219.231 243.682 219.366 245.275C219.588 247.905 221.337 249.604 224.109 249.899C226.632 250.168 228.925 248.708 229.607 246.338C229.784 245.725 229.795 245.063 229.834 244.774C229.928 241.88 228.645 239.823 226.414 239.122H226.413ZM228.626 246.202C227.954 248.279 226.049 249.153 224.224 249.041C222.19 248.914 220.569 247.324 220.335 245.339C220.298 245.019 220.33 244.693 220.33 244.368C220.317 241.071 223.055 238.998 226.065 240.014C227.13 240.374 227.923 241.032 228.394 242.096C228.993 243.448 229.069 244.834 228.626 246.204V246.202Z" fill="white"/>
<path d="M193.959 238.992C193.786 239.033 193.614 239.073 193.442 239.114C193.442 239.628 193.444 240.145 193.442 240.659C193.436 242.277 193.499 243.9 193.403 245.515C193.272 247.731 191.679 249.171 189.614 249.08C187.516 248.988 186.3 247.654 186.24 245.341C186.214 244.317 186.235 243.291 186.233 242.266C186.231 241.402 186.267 240.536 186.196 239.679C186.175 239.434 185.834 239.216 185.64 238.986C185.527 239.033 185.415 239.082 185.301 239.129C185.301 241.435 185.22 243.744 185.322 246.045C185.442 248.705 187.579 250.287 190.218 249.934C191.453 249.768 192.385 249.124 193.254 248.356C193.668 248.786 193.067 249.932 194.371 249.569C194.371 246.274 194.379 242.986 194.353 239.698C194.351 239.461 194.095 239.228 193.957 238.992H193.959Z" fill="white"/>
<path d="M170.535 244.503C169.672 244.205 168.778 243.987 167.92 243.676C166.629 243.207 166.125 242.58 166.189 241.632C166.252 240.681 167.046 239.961 168.322 239.769C168.683 239.716 169.067 239.781 169.434 239.836C170.78 240.036 171.321 241.113 171.935 242.405C172.761 241.559 172.443 240.948 172.052 240.375C171.1 238.979 168.54 238.421 166.906 239.257C165.89 239.776 165.169 240.505 165.179 241.767C165.189 243.012 165.819 243.791 166.903 244.257C167.445 244.49 168.012 244.67 168.572 244.859C169.184 245.065 169.818 245.216 170.412 245.462C171.149 245.769 171.729 246.29 171.628 247.165C171.537 247.955 171.087 248.517 170.282 248.81C168.634 249.412 167.083 248.956 166.043 247.489C165.807 247.158 165.692 246.632 164.95 247.032C164.921 247.991 165.468 248.679 166.247 249.184C167.439 249.956 168.746 250.089 170.131 249.763C171.561 249.425 172.541 248.463 172.636 247.192C172.731 245.933 172.036 245.019 170.537 244.502L170.535 244.503Z" fill="white"/>
<path d="M78.8232 236.732C79.7714 236.655 80.8139 237.124 81.8173 236.306C80.6401 235.39 79.4272 236.019 78.315 235.917C77.1119 235.807 75.8892 235.893 74.5448 235.893C74.5448 240.39 74.5432 244.651 74.5513 248.914C74.5513 249.122 74.6374 249.33 74.6942 249.534C74.7056 249.575 74.764 249.607 74.8062 249.635C74.8517 249.664 74.9036 249.68 74.9621 249.708C75.6619 249.63 75.584 249.093 75.5856 248.614C75.5872 247.264 75.5677 245.912 75.5856 244.562C75.5905 244.156 75.6928 243.752 75.7545 243.329C77.5324 243.066 79.2502 243.476 81.1061 243.015C80.2228 241.905 79.2567 242.465 78.4433 242.381C77.5519 242.288 76.6442 242.36 75.6765 242.36V236.751C76.7969 236.751 77.8165 236.814 78.8248 236.733L78.8232 236.732Z" fill="white"/>
<path d="M26.7793 240.047C27.4174 240.005 27.8931 239.982 28.3656 239.942C28.8592 239.898 29.3512 239.838 30.1078 239.757C29.0524 238.512 27.833 239.362 26.8312 238.798C26.7484 238.051 26.6591 237.23 26.5438 236.191C25.1053 236.858 26.1314 238.178 25.4771 238.889C25.0647 238.997 24.6165 239.114 24.1684 239.231L24.0742 239.642C24.5808 239.809 25.0858 239.974 25.7093 240.18C25.7093 242.138 25.6898 244.074 25.719 246.008C25.7288 246.699 25.7775 247.41 25.9479 248.077C26.375 249.759 28.325 250.349 29.8432 249.299C29.6223 248.684 29.0833 248.819 28.6205 248.783C27.0634 248.665 26.8134 248.481 26.7322 247.008C26.6559 245.61 26.6786 244.205 26.6851 242.805C26.69 241.905 26.7436 241.008 26.7777 240.049L26.7793 240.047Z" fill="white"/>
<path d="M181.231 249.057C180.45 248.893 179.665 248.752 178.68 248.567C177.948 245.792 178.315 242.926 178.323 240.029C179.435 239.969 180.373 239.917 181.289 239.867C181.302 239.588 181.326 239.395 181.309 239.391C180.36 239.185 179.41 238.994 178.353 238.781C178.327 238.413 178.306 237.996 178.266 237.58C178.222 237.139 178.436 236.586 177.558 236.289C177.413 237.194 177.279 238.051 177.152 238.846C176.691 239.181 175.799 238.705 175.816 239.789C176.278 239.888 176.722 239.984 177.314 240.112C177.314 241.756 177.3 243.419 177.319 245.081C177.331 246.048 177.339 247.024 177.457 247.981C177.576 248.929 178.235 249.599 179.115 249.698C179.836 249.779 180.571 249.714 181.45 249.714C181.296 249.244 181.278 249.067 181.227 249.057H181.231Z" fill="white"/>
<path d="M86.7663 240.311C86.6104 239.711 86.2965 239.268 85.8245 238.982C85.4771 241.374 85.6037 248.622 86.008 249.722C86.5828 249.667 86.6234 249.255 86.6234 248.81C86.6217 247.351 86.6185 245.892 86.6185 244.433C86.6185 243.294 86.6169 242.145 87.2875 241.152C87.9223 240.214 88.9452 240.032 89.9665 239.844C90.53 239.74 90.603 239.38 90.3562 238.846C88.9209 238.753 87.8038 239.401 86.7663 240.31V240.311Z" fill="white"/>
<path d="M62.5995 238.999C62.5995 238.027 62.606 237.055 62.593 236.083C62.5882 235.649 62.593 235.182 61.8137 235.198C61.4418 236.774 61.5133 248.598 61.903 249.711C62.8155 249.632 62.5946 248.932 62.5963 248.397C62.606 245.265 62.5995 242.133 62.5963 239.001L62.5995 238.999Z" fill="white"/>
<path d="M214.406 239.054C214.048 240.037 213.977 248.156 214.36 249.903C214.674 249.563 215.021 249.362 215.049 249.124C215.122 248.484 215.049 247.83 215.052 247.181C215.063 244.855 215.091 242.531 215.094 240.206C215.094 239.711 215.253 239.065 214.406 239.054Z" fill="white"/>
<path d="M213.842 235.891C213.743 236.355 214.058 236.738 214.56 236.672C214.839 236.634 215.083 236.326 215.57 235.977C215.083 235.607 214.808 235.248 214.5 235.218C214.294 235.196 213.901 235.615 213.842 235.891Z" fill="white"/>
<path d="M84.4297 84.4146H81.1824V85.226H84.4297V84.4146Z" fill="white"/>
<path d="M75.1798 84.4146H69.177V85.226H75.1798V84.4146Z" fill="white"/>
<path d="M63.1759 84.4146H57.1731V85.226H63.1759V84.4146Z" fill="white"/>
<path d="M51.1719 84.4146H45.1692V85.226H51.1719V84.4146Z" fill="white"/>
<path d="M39.168 84.4146H33.1653V85.226H39.168V84.4146Z" fill="white"/>
<path d="M27.1626 84.4147H24.3211V81.5747H23.5093V85.2261H27.1626V84.4147Z" fill="white"/>
<path d="M24.3211 74.6499H23.5093V78.1115H24.3211V74.6499Z" fill="white"/>
<path d="M24.3211 68.3485H27.1626V67.5371H23.5093V71.1885H24.3211V68.3485Z" fill="white"/>
<path d="M55.4551 67.5371H48.3823V68.3485H55.4551V67.5371Z" fill="white"/>
<path d="M41.3081 67.5371H34.2354V68.3485H41.3081V67.5371Z" fill="white"/>
<path d="M69.6023 67.5371H62.5295V68.3485H69.6023V67.5371Z" fill="white"/>
<path d="M80.3284 103.349H79.5166V109.84H80.3284V103.349Z" fill="white"/>
<path d="M100.545 115.395H99.7329V121.886H100.545V115.395Z" fill="white"/>
<path d="M100.545 102.412H99.7329V108.904H100.545V102.412Z" fill="white"/>
<path d="M100.545 89.4292H99.7329V95.9206H100.545V89.4292Z" fill="white"/>
<path d="M100.545 128.378H99.7329V134.869H100.545V128.378Z" fill="white"/>
<path d="M93.7466 141.871H100.545V141.361H100.139V141.059H93.7466V141.871Z" fill="white"/>
<path d="M80.3284 90.3657H79.5166V96.8572H80.3284V90.3657Z" fill="white"/>
<path d="M87.2518 141.059H80.7571V141.871H87.2518V141.059Z" fill="white"/>
<path d="M80.3284 77.3828H79.5166V83.8743H80.3284V77.3828Z" fill="white"/>
<path d="M80.3284 116.332H79.5166V122.823H80.3284V116.332Z" fill="white"/>
<path d="M80.3284 129.314H79.5166V135.806H80.3284V129.314Z" fill="white"/>
</g>
<defs>
<clipPath id="clip0_311_231">
<rect width="232" height="250" fill="white" transform="translate(0.5)"/>
</clipPath>
</defs>
</svg>
