<svg width="1057" height="250" viewBox="0 0 1057 250" fill="none" xmlns="http://www.w3.org/2000/svg">
<g clip-path="url(#clip0_311_151)">
<path d="M594.371 108.733C594.353 117.662 594.419 126.592 594.454 135.521C594.465 137.822 595.286 139.205 597.93 139.142C603.052 139.02 608.178 139.034 613.304 139.08C615.63 139.101 616.63 138.181 616.626 135.771C616.588 109.406 616.588 83.0362 616.647 56.6704C616.654 54.0446 615.501 53.268 613.071 53.3133C608.056 53.4108 603.035 53.4491 598.02 53.3029C595.112 53.2193 594.27 54.4312 594.318 57.1997C594.461 65.9129 594.364 74.633 594.44 83.3462C594.465 86.1356 593.552 87.5739 590.477 87.553C579.355 87.4729 568.232 87.6087 557.109 87.5321C552.063 87.4973 551.914 87.2465 551.889 82.0263C551.854 73.8564 551.771 65.6796 551.931 57.5132C551.99 54.4486 551.078 53.1531 547.86 53.2889C543.18 53.4874 538.479 53.4665 533.795 53.2959C530.762 53.1844 529.571 54.0829 529.616 57.3565C529.79 70.2103 529.689 83.0676 529.689 95.9249H529.595C529.595 108.998 529.668 122.075 529.543 135.148C529.515 138.178 530.661 139.257 533.562 139.195C538.357 139.09 543.159 139.094 547.958 139.188C550.872 139.247 551.99 138.143 551.942 135.117C551.799 126.296 551.861 117.467 551.98 108.643C552.036 104.499 552.941 103.746 557.092 103.74C567.891 103.726 578.686 103.722 589.485 103.74C593.705 103.746 594.384 104.551 594.378 108.726L594.371 108.733Z" fill="white"/>
<path d="M182.06 139.863C172.246 139.863 162.433 139.898 152.62 139.884C148.8 139.881 148.27 139.337 148.263 135.535C148.246 125.731 148.135 115.925 148.333 106.125C148.396 103.047 147.354 102.193 144.436 102.218C130.486 102.319 116.536 102.253 102.585 102.26C98.591 102.26 98.4517 102.448 98.4587 106.588C98.4796 116.172 98.504 125.759 98.4796 135.343C98.4691 139.365 97.9921 139.842 93.9316 139.86C84.1184 139.902 74.3051 139.978 64.4953 139.832C61.3263 139.783 60.3269 140.919 60.3617 144.021C60.4975 156.764 60.4314 169.51 60.4453 182.252C60.4488 186.159 60.804 186.549 64.7425 186.567C74.3364 186.602 83.9303 186.588 93.5277 186.609C98.0165 186.619 98.5005 187.138 98.5005 191.735C98.5005 202.955 98.5667 214.172 98.4552 225.393C98.4274 228.085 99.3293 229.063 102.035 229.015C109.23 228.889 116.424 228.973 123.622 228.973C130.489 228.973 137.364 228.82 144.224 229.046C147.348 229.15 148.382 228.287 148.333 225.069C148.155 213.525 148.34 201.977 148.211 190.432C148.176 187.42 149.207 186.459 152.202 186.504C162.123 186.657 172.044 186.584 181.966 186.556C186.026 186.546 186.406 186.131 186.402 182.008C186.392 169.374 186.357 156.739 186.339 144.105C186.336 140.156 186.068 139.86 182.06 139.863ZM172.95 177.192C162.924 177.042 152.895 177.241 142.869 177.108C139.759 177.067 138.61 178.073 138.729 181.249C138.941 187.013 138.788 192.79 138.788 198.56H138.777C138.777 204.439 138.676 210.324 138.819 216.199C138.889 219.107 137.882 220.35 134.877 220.305C127.139 220.19 119.398 220.207 111.66 220.284C108.554 220.315 107.523 219.013 107.565 215.924C107.715 204.495 107.649 193.065 107.638 181.636C107.635 177.429 107.332 177.136 103.219 177.133C93.3013 177.126 83.3801 177.056 73.4623 177.199C70.5755 177.241 69.6248 176.213 69.6875 173.396C69.8302 166.974 69.7153 160.549 69.7362 154.124C69.7502 149.844 70.1785 149.395 74.3782 149.398C83.9686 149.405 93.5625 149.465 103.153 149.471C107.356 149.475 107.53 149.252 107.53 145.017C107.534 135.218 107.638 125.418 107.523 115.618C107.485 112.463 108.801 111.321 111.796 111.345C119.534 111.408 127.272 111.457 135.006 111.324C138.192 111.272 138.833 112.881 138.816 115.587C138.746 125.495 138.892 135.406 138.718 145.313C138.663 148.514 139.822 149.51 142.897 149.471C152.707 149.346 162.517 149.416 172.326 149.409C176.537 149.409 177.042 149.886 177.045 154.061C177.052 160.379 176.92 166.696 177.083 173.006C177.163 176.102 176.14 177.241 172.95 177.192Z" fill="white"/>
<path d="M411.317 139.174C408.621 132.508 406.375 126.877 404.063 121.27C399.466 110.112 394.842 98.9684 390.221 87.821C385.809 77.1751 381.456 66.5013 376.866 55.932C376.357 54.7654 374.48 53.5152 373.202 53.4734C366.015 53.2401 358.81 53.2401 351.622 53.4769C350.358 53.5187 348.516 54.7758 348.001 55.9425C343.557 65.9824 339.344 76.1269 335.092 86.2504C329.112 100.48 323.147 114.716 317.196 128.96C315.886 132.094 314.678 135.266 313.132 139.153C320.333 139.153 326.626 139.069 332.915 139.195C335.496 139.247 336.944 138.195 337.825 135.862C339.441 131.585 341.207 127.368 342.854 123.105C343.609 121.145 344.835 120.229 347.043 120.243C356.964 120.313 366.885 120.271 376.803 120.243C379.317 120.236 380.815 121.347 381.626 123.771C382.974 127.779 384.572 131.704 385.997 135.688C386.874 138.139 388.319 139.414 391.123 139.17C393.609 138.954 396.13 139.17 398.638 139.181C402.618 139.191 406.595 139.181 411.313 139.181L411.317 139.174ZM370.316 105.86C364.664 105.926 359.008 105.888 353.357 105.794C350 105.738 349.007 104.412 350.142 101.211C352.824 93.6542 355.651 86.1495 358.469 78.6412C359.339 76.3219 360.367 74.0618 361.324 71.7773C361.822 71.8365 362.32 71.8922 362.818 71.9514C363.521 73.8354 364.221 75.7194 364.925 77.6035C367.847 85.4216 370.786 93.2293 373.676 101.058C374.867 104.286 373.84 105.818 370.319 105.86H370.316Z" fill="white"/>
<path d="M929.847 80.4347C923.16 75.3224 904.85 75.2702 897.746 81.6083C896.851 82.4058 895.974 83.2207 895.065 84.0007C893.153 85.6514 892.098 84.6554 891.586 82.7227C891.342 81.8033 891.499 80.776 891.502 79.7974C891.509 70.3251 891.478 60.8492 891.565 51.3769C891.589 48.6989 890.454 47.6402 887.839 47.6855C883.371 47.7621 878.9 47.6924 874.432 47.7098C870.26 47.7238 869.87 48.2461 869.884 52.4739C869.929 66.0834 869.901 79.6929 869.901 93.3024C869.926 93.3024 869.947 93.3024 869.971 93.3024C869.971 107.455 870.002 121.608 869.94 135.761C869.929 138.185 870.956 139.08 873.265 139.069C877.952 139.045 882.64 139.02 887.324 139.191C890.395 139.302 891.582 138.157 891.551 135.002C891.443 124.551 891.415 114.093 891.631 103.645C891.798 95.5695 897.593 90.3319 905.578 90.5861C912.797 90.8159 917.157 95.7889 917.16 103.889C917.164 114.344 917.188 124.794 917.07 135.249C917.038 138.038 917.968 139.191 920.855 139.1C925.643 138.954 930.442 139.055 935.237 139.118C937.508 139.146 938.653 138.306 938.646 135.869C938.605 123.454 938.946 111.032 938.539 98.6306C938.305 91.5542 935.976 85.1221 929.85 80.4347H929.847Z" fill="white"/>
<path d="M767.36 113.957C767.235 113.957 767.113 113.957 766.988 113.957C766.988 109.381 766.929 104.805 766.998 100.233C767.218 86.0102 758.198 79.1079 747.549 77.4503C737.088 75.8205 726.279 76.1548 715.846 79.2263C709.553 81.079 709.546 81.0546 709.543 87.7445C709.543 88.8345 709.501 89.9245 709.532 91.011C709.616 93.9851 710.525 94.6467 713.105 93.3547C721.275 89.2594 729.942 88.3574 738.822 89.5971C741.027 89.9036 743.558 91.119 744.976 92.7523C746.167 94.1244 746.369 96.7571 746.146 98.7352C746.062 99.4839 743.611 100.306 742.159 100.504C736.458 101.284 730.67 101.528 725.025 102.555C720.509 103.377 715.874 104.485 711.765 106.449C701.23 111.492 699.409 127.636 708.136 135.399C713.025 139.748 718.775 140.661 725.092 140.73C731.893 140.804 737.67 138.878 742.744 134.458C743.412 133.877 744.781 133.132 745.167 133.4C745.909 133.915 746.522 135.089 746.578 136.026C746.717 138.303 747.887 139.062 749.956 139.055C754.535 139.034 759.118 138.93 763.69 139.094C766.64 139.202 767.451 137.924 767.402 135.183C767.277 128.11 767.36 121.033 767.36 113.957ZM732.972 128.089C725.784 128.082 721.815 124.398 722.852 118.655C723.664 114.159 727.285 112.481 730.991 111.742C735.42 110.861 740.027 110.847 744.565 110.544C746.87 110.391 747.145 112.101 747.173 113.821C747.319 122.103 740.995 128.705 732.969 128.089H732.972Z" fill="white"/>
<path d="M691.647 126.675C691.535 124.854 690.682 123.868 688.593 124.892C680.841 128.685 672.539 128.691 664.286 127.713C658.766 127.058 654.274 124.105 651.708 118.93C649.963 115.413 650.997 113.901 654.901 113.894C661.333 113.884 667.765 113.894 674.197 113.894V113.867C680.956 113.867 687.715 113.839 694.471 113.881C696.898 113.894 698.124 112.94 698.016 110.381C697.915 107.988 698.18 105.571 697.96 103.196C696.818 90.9519 691.114 83.078 680.789 79.1498C671.254 75.5245 661.228 75.5977 651.45 78.819C641.57 82.0716 634.209 88.3992 631.196 98.4636C624.218 121.765 637.541 139.209 660.034 140.542C668.848 141.065 677.696 141.026 686.242 138.495C688.269 137.896 690.731 136.217 691.455 134.417C692.361 132.17 691.803 129.277 691.643 126.675H691.647ZM651.377 98.9581C654.587 91.6832 659.233 87.7863 667.995 89.249C674.392 90.3181 677.122 93.2225 677.547 98.7979C677.745 101.392 676.885 102.705 674.134 102.639C670.767 102.559 667.399 102.622 664.032 102.622C660.664 102.625 657.297 102.667 653.929 102.615C651.123 102.569 650.255 101.497 651.377 98.9581Z" fill="white"/>
<path d="M244.203 104.335C229.263 94.1838 214.394 83.9314 199.503 73.7104C188.823 66.3798 178.142 59.0457 167.455 51.722C153.539 42.1835 139.617 32.6589 125.708 23.11C124.061 21.9782 122.581 22.0095 120.92 23.1761C114.241 27.867 107.534 32.5127 100.792 37.113C83.7982 48.7097 66.7834 60.2715 49.7791 71.8542C34.0354 82.5767 18.2916 93.2958 2.56182 104.036C1.7748 104.572 0.392308 105.624 0.507226 105.871C1.49273 107.988 2.55833 110.151 4.06968 111.896C4.49801 112.39 6.70582 111.941 7.67392 111.29C17.7971 104.499 27.8333 97.5723 37.9008 90.6979C65.2268 72.0388 92.5563 53.3831 119.896 34.7415C120.854 34.0902 121.916 33.5922 123.184 32.8783C124.97 33.8256 126.774 34.5778 128.355 35.6573C142.204 45.0949 156.012 54.595 169.84 64.0709C192.824 79.8221 215.821 95.5525 238.78 111.339C240.755 112.697 242.256 113.01 243.52 110.583C243.92 109.817 244.457 109.106 245.024 108.452C246.543 106.696 246.09 105.617 244.206 104.335H244.203Z" fill="white"/>
<path d="M286.955 125.655C286.955 86.6544 286.955 47.6541 286.955 8.6539C286.955 7.02062 287.175 5.356 286.92 3.76451C286.75 2.70584 286.168 1.25713 285.336 0.832264C280.983 -1.39304 277.229 1.01684 277.208 5.85748C277.208 6.07687 277.208 6.29279 277.208 6.51218C277.225 84.7321 277.243 162.948 277.267 241.168C277.267 243.129 277.25 245.1 277.448 247.043C277.521 247.778 278.005 248.788 278.604 249.108C283.037 251.473 287.192 248.934 287.192 243.958C287.192 204.522 287.192 165.09 287.192 125.655C287.112 125.655 287.032 125.655 286.952 125.655H286.955Z" fill="white"/>
<path d="M861.008 134.479C861.008 133.174 860.969 131.868 861.001 130.562C861.109 125.916 861.039 125.85 856.578 126.752C849.579 128.166 845.539 125.279 845.226 118.105C844.891 110.391 845.02 102.66 844.954 94.936C844.933 92.6306 846.19 91.5719 848.405 91.5092C849.387 91.4813 850.366 91.5092 851.348 91.4918C862.247 91.3072 860.868 93.4768 861.032 81.4205C861.067 78.8922 860.102 77.541 857.386 77.6072C854.558 77.6768 851.717 77.4296 848.896 77.5584C846.222 77.6803 845.072 76.5206 845.058 73.9471C845.038 70.1373 845.006 66.3274 844.923 62.5176C844.867 59.9475 843.787 59.1048 841.116 59.9092C836.767 61.2186 832.344 62.3574 827.89 63.2315C823.6 64.0743 823.022 64.5061 823.001 68.894C822.956 77.7569 823.799 78.046 814.41 77.6211C812.255 77.5236 811.475 78.6624 811.36 80.5568C811.307 81.424 811.325 82.2981 811.325 83.1687C811.325 91.1644 811.321 91.2271 819.139 91.4605C821.904 91.544 823.071 92.6724 823.005 95.4409C822.9 99.902 822.977 104.37 822.977 108.835H823.029C823.029 113.191 822.963 117.548 823.043 121.901C823.214 131.105 829.875 139.31 838.822 140.347C844.515 141.009 850.362 140.685 856.115 140.334C859.907 140.1 861.025 138.345 861.018 134.476L861.008 134.479Z" fill="white"/>
<path d="M440.68 134.577C440.684 115.204 440.691 95.8308 440.694 76.4578C440.694 68.4028 440.733 60.3479 440.687 52.2964C440.666 48.5318 439.796 47.7274 436.028 47.71C431.78 47.6891 427.531 47.696 423.283 47.71C419.135 47.7239 418.564 48.302 418.564 52.4078C418.564 66.1218 418.564 79.8358 418.564 93.5498H418.651C418.651 107.588 418.707 121.629 418.602 135.667C418.581 138.32 419.654 139.121 422.092 139.08C426.772 139 431.456 139.069 436.139 139.052C440.172 139.038 440.68 138.519 440.684 134.58L440.68 134.577Z" fill="white"/>
<path d="M476.737 136.266C476.671 122.116 476.702 107.971 476.702 93.8213C476.716 93.8213 476.73 93.8213 476.744 93.8213C476.744 79.672 476.72 65.5192 476.765 51.3699C476.772 48.758 475.734 47.6123 473.056 47.675C468.484 47.783 463.901 47.8247 459.329 47.6611C456.153 47.5496 455.024 49.0471 455.024 51.9619C455.045 79.9367 455.063 107.915 455.038 135.89C455.038 138.077 455.881 139.167 458.078 139.149C463.413 139.114 468.752 139.062 474.087 139.048C475.995 139.045 476.744 138.254 476.733 136.259L476.737 136.266Z" fill="white"/>
<path d="M785.037 139.188C789.612 139.115 794.188 139.188 798.764 139.157C802.779 139.132 803.176 138.714 803.18 134.595C803.187 113.477 803.18 92.3625 803.18 71.2448C803.18 64.7152 803.155 58.182 803.19 51.6524C803.204 49.0022 802.208 47.6023 799.328 47.6719C794.644 47.7868 789.957 47.7207 785.273 47.6998C782.575 47.6893 781.345 48.8977 781.356 51.6802C781.415 65.6101 781.384 79.5401 781.384 93.4734C781.377 93.4734 781.366 93.4734 781.359 93.4734C781.359 107.403 781.436 121.337 781.296 135.267C781.269 138.157 782.272 139.23 785.037 139.184V139.188Z" fill="white"/>
<path d="M321.514 160.246H313.372V196.325H321.514V160.246Z" fill="white"/>
<path d="M357.41 169.652C355.882 168.775 354.085 168.339 352.023 168.339C349.652 168.339 347.597 168.865 345.863 169.91C344.46 170.756 343.321 171.958 342.436 173.5V168.649H334.5V196.328H342.436V182.67C342.436 180.573 343.004 178.839 344.136 177.463C345.271 176.088 346.817 175.384 348.774 175.35C350.456 175.35 351.79 175.865 352.768 176.896C353.747 177.927 354.238 179.354 354.238 181.172V196.325H362.174V178.954C362.174 176.788 361.763 174.918 360.938 173.337C360.113 171.756 358.936 170.526 357.407 169.652H357.41Z" fill="white"/>
<path d="M387.689 189.934C387.069 190.109 386.505 190.192 385.99 190.192C385.165 190.227 384.513 189.994 384.033 189.496C383.552 188.998 383.312 188.131 383.312 186.894V175.144H390.837V169.837H383.312V162.21H375.428V169.837H371.562V175.144H375.428V188.183C375.428 190.074 375.804 191.655 376.563 192.926C377.319 194.197 378.357 195.141 379.68 195.761C381.003 196.381 382.49 196.687 384.137 196.687C385.443 196.687 386.714 196.513 387.95 196.172C389.187 195.827 390.322 195.346 391.353 194.73L389.702 189.165C388.981 189.51 388.309 189.767 387.693 189.938L387.689 189.934Z" fill="white"/>
<path d="M421.008 170.425C418.929 169.067 416.258 168.388 412.995 168.388C410.178 168.423 407.695 169.025 405.547 170.192C403.398 171.362 401.723 173.002 400.522 175.113C399.317 177.227 398.718 179.71 398.718 182.562C398.718 185.414 399.31 187.793 400.497 189.906C401.681 192.02 403.356 193.661 405.522 194.827C407.688 195.997 410.244 196.579 413.201 196.579C415.708 196.579 417.968 196.168 419.978 195.343C421.987 194.517 423.679 193.333 425.055 191.787L420.879 187.664C418.888 189.656 416.551 190.652 413.869 190.652C412.393 190.652 411.087 190.307 409.952 189.621C408.817 188.935 407.943 187.956 407.323 186.682C407.055 186.131 406.849 185.525 406.696 184.878H426.597C426.838 181.51 426.486 178.599 425.542 176.14C424.595 173.685 423.084 171.777 421.008 170.418V170.425ZM406.539 180.243C406.671 179.403 406.898 178.63 407.222 177.923C407.772 176.722 408.545 175.775 409.541 175.088C410.537 174.402 411.707 174.058 413.044 174.058C414.246 174.058 415.311 174.315 416.241 174.831C417.171 175.346 417.881 176.06 418.379 176.969C418.877 177.881 419.142 178.971 419.177 180.243H406.539Z" fill="white"/>
<path d="M444.949 173.636V168.649H437.013V196.328H444.949V183.032C444.949 181.416 445.319 180.026 446.057 178.856C446.795 177.69 447.861 176.795 449.254 176.175C450.647 175.555 452.269 175.332 454.125 175.506V168.343C451.858 168.343 449.88 168.91 448.199 170.042C446.875 170.934 445.796 172.135 444.953 173.64L444.949 173.636Z" fill="white"/>
<path d="M486.515 169.652C484.986 168.775 483.189 168.339 481.128 168.339C478.756 168.339 476.702 168.865 474.967 169.91C473.564 170.756 472.425 171.958 471.541 173.5V168.649H463.604V196.328H471.541V182.67C471.541 180.573 472.108 178.839 473.24 177.463C474.375 176.088 475.922 175.384 477.879 175.35C479.561 175.35 480.894 175.865 481.873 176.896C482.851 177.927 483.342 179.354 483.342 181.172V196.325H491.279V178.954C491.279 176.788 490.868 174.918 490.043 173.337C489.217 171.756 488.04 170.526 486.511 169.652H486.515Z" fill="white"/>
<path d="M524.01 170.969C521.983 169.217 519.096 168.339 515.353 168.339C513.737 168.339 512.243 168.468 510.867 168.726C509.492 168.984 508.151 169.353 506.849 169.833C505.543 170.314 504.202 170.916 502.83 171.637L505.302 176.791C506.744 176.001 508.172 175.391 509.579 174.963C510.986 174.535 512.309 174.319 513.549 174.319C515.44 174.319 516.874 174.747 517.853 175.607C518.831 176.467 519.322 177.651 519.322 179.163V179.678H511.696C508.294 179.713 505.682 180.469 503.861 181.945C502.039 183.422 501.131 185.449 501.131 188.026C501.131 189.676 501.517 191.153 502.29 192.459C503.063 193.765 504.164 194.796 505.588 195.551C507.012 196.307 508.705 196.687 510.665 196.687C513.103 196.687 515.165 196.206 516.85 195.245C517.846 194.677 518.682 193.946 519.364 193.065L519.375 196.328H527.158L527.105 178.237C527.071 175.144 526.04 172.72 524.013 170.969H524.01ZM518.264 188.931C517.661 189.6 516.906 190.133 515.997 190.53C515.084 190.927 514.047 191.122 512.88 191.122C511.539 191.122 510.484 190.805 509.711 190.168C508.938 189.534 508.552 188.667 508.552 187.566C508.552 186.466 508.928 185.609 509.687 185.094C510.442 184.578 511.574 184.32 513.089 184.32H519.34L519.347 186.741C519.19 187.57 518.835 188.301 518.267 188.935L518.264 188.931Z" fill="white"/>
<path d="M555.086 189.443C553.985 189.976 552.732 190.241 551.325 190.241C550.054 190.241 548.919 189.924 547.923 189.287C546.927 188.653 546.143 187.751 545.579 186.581C545.011 185.414 544.729 184.073 544.729 182.562C544.729 181.05 545.011 179.668 545.579 178.515C546.147 177.366 546.927 176.471 547.923 175.834C548.919 175.2 550.054 174.88 551.325 174.88C552.7 174.88 553.919 175.137 554.985 175.653C556.05 176.168 556.942 176.889 557.666 177.819L563.026 174.005C561.789 172.219 560.139 170.836 558.077 169.858C556.016 168.879 553.644 168.388 550.966 168.388C548.288 168.388 545.718 168.98 543.57 170.168C541.421 171.352 539.757 173.013 538.569 175.141C537.385 177.272 536.79 179.745 536.79 182.562C536.79 185.379 537.382 187.793 538.569 189.906C539.753 192.02 541.411 193.661 543.542 194.827C545.673 195.997 548.145 196.579 550.963 196.579C553.78 196.579 556.193 196.063 558.307 195.033C560.421 194.002 562.061 192.543 563.228 190.652L557.764 187.044C557.078 188.109 556.183 188.907 555.082 189.44L555.086 189.443Z" fill="white"/>
<path d="M581.267 168.649H573.33V196.328H581.267V168.649Z" fill="white"/>
<path d="M577.3 156.433C576.095 156.433 575.085 156.844 574.26 157.669C573.435 158.495 573.024 159.526 573.024 160.762C573.024 161.998 573.435 163.029 574.26 163.854C575.085 164.68 576.099 165.091 577.3 165.091C578.571 165.091 579.609 164.68 580.417 163.854C581.225 163.029 581.629 161.998 581.629 160.762C581.629 159.526 581.225 158.495 580.417 157.669C579.609 156.844 578.571 156.433 577.3 156.433Z" fill="white"/>
<path d="M602.551 164.732L608.325 165.247L615.334 159.679L608.325 156.948L602.551 164.732Z" fill="white"/>
<path d="M614.352 170.143C612.116 168.977 609.526 168.392 606.569 168.392C603.613 168.392 601.011 168.977 598.762 170.143C596.512 171.313 594.767 172.954 593.531 175.064C592.295 177.178 591.675 179.643 591.675 182.461C591.675 185.278 592.295 187.754 593.531 189.882C594.767 192.013 596.512 193.66 598.762 194.831C601.011 196.001 603.616 196.582 606.569 196.582C609.522 196.582 612.116 195.997 614.352 194.831C616.584 193.664 618.322 192.013 619.558 189.882C620.794 187.751 621.414 185.278 621.414 182.461C621.414 179.643 620.794 177.178 619.558 175.064C618.322 172.95 616.584 171.31 614.352 170.143ZM612.601 186.661C612.015 187.845 611.208 188.775 610.177 189.443C609.146 190.112 607.945 190.45 606.569 190.45C605.194 190.45 603.982 190.115 602.937 189.443C601.889 188.775 601.074 187.845 600.489 186.661C599.904 185.477 599.611 184.108 599.611 182.562C599.611 181.016 599.904 179.65 600.489 178.463C601.074 177.279 601.889 176.36 602.937 175.705C603.985 175.054 605.197 174.726 606.569 174.726C607.941 174.726 609.146 175.054 610.177 175.705C611.208 176.36 612.015 177.275 612.601 178.463C613.186 179.647 613.478 181.016 613.478 182.562C613.478 184.108 613.186 185.473 612.601 186.661Z" fill="white"/>
<path d="M654.734 169.652C653.205 168.775 651.408 168.339 649.347 168.339C646.975 168.339 644.921 168.865 643.187 169.91C641.783 170.756 640.645 171.958 639.76 173.5V168.649H631.824V196.328H639.76V182.67C639.76 180.573 640.328 178.839 641.459 177.463C642.595 176.088 644.141 175.384 646.098 175.35C647.78 175.35 649.114 175.865 650.092 176.896C651.071 177.927 651.562 179.354 651.562 181.172V196.325H659.498V178.954C659.498 176.788 659.087 174.918 658.262 173.337C657.436 171.756 656.259 170.526 654.731 169.652H654.734Z" fill="white"/>
<path d="M719.697 165.271C718.012 163.673 716.013 162.437 713.694 161.559C711.374 160.681 708.804 160.246 705.987 160.246H690.731V196.325H705.729C708.582 196.325 711.183 195.886 713.537 195.012C715.891 194.134 717.925 192.891 719.645 191.275C721.362 189.659 722.685 187.754 723.615 185.553C724.541 183.356 725.008 180.932 725.008 178.285C725.008 175.639 724.545 173.166 723.615 170.965C722.689 168.768 721.383 166.866 719.697 165.271ZM715.936 182.924C715.421 184.3 714.69 185.494 713.746 186.507C712.802 187.521 711.691 188.304 710.42 188.851C709.149 189.401 707.739 189.676 706.193 189.676H698.873V166.845H705.83C707.411 166.845 708.864 167.121 710.187 167.671C711.51 168.221 712.652 169.018 713.614 170.067C714.575 171.115 715.33 172.334 715.881 173.727C716.431 175.12 716.706 176.656 716.706 178.341C716.706 180.027 716.448 181.555 715.933 182.927L715.936 182.924Z" fill="white"/>
<path d="M755.673 170.143C753.438 168.977 750.847 168.392 747.89 168.392C744.934 168.392 742.332 168.977 740.083 170.143C737.833 171.313 736.088 172.954 734.852 175.064C733.616 177.178 732.996 179.643 732.996 182.461C732.996 185.278 733.616 187.754 734.852 189.882C736.088 192.013 737.833 193.66 740.083 194.831C742.332 196.001 744.937 196.582 747.89 196.582C750.843 196.582 753.438 195.997 755.673 194.831C757.905 193.664 759.643 192.013 760.879 189.882C762.116 187.751 762.735 185.278 762.735 182.461C762.735 179.643 762.116 177.178 760.879 175.064C759.643 172.95 757.905 171.31 755.673 170.143ZM753.922 186.661C753.337 187.845 752.529 188.775 751.498 189.443C750.467 190.112 749.266 190.45 747.89 190.45C746.515 190.45 745.303 190.115 744.258 189.443C743.21 188.775 742.395 187.845 741.81 186.661C741.225 185.477 740.932 184.108 740.932 182.562C740.932 181.016 741.225 179.65 741.81 178.463C742.395 177.279 743.21 176.36 744.258 175.705C745.306 175.054 746.518 174.726 747.89 174.726C749.262 174.726 750.467 175.054 751.498 175.705C752.529 176.36 753.337 177.275 753.922 178.463C754.507 179.647 754.799 181.016 754.799 182.562C754.799 184.108 754.507 185.473 753.922 186.661Z" fill="white"/>
<path d="M815.173 169.652C813.679 168.775 811.9 168.339 809.838 168.339C807.502 168.339 805.482 168.865 803.782 169.91C802.083 170.958 800.767 172.539 799.84 174.653C799.833 174.67 799.826 174.691 799.819 174.709C799.659 174.232 799.471 173.772 799.248 173.34C798.44 171.759 797.291 170.53 795.794 169.656C794.3 168.778 792.52 168.343 790.459 168.343C788.122 168.343 786.102 168.869 784.403 169.913C783.048 170.749 781.945 171.926 781.077 173.438V168.653H773.141V196.331H781.077V182.673C781.077 180.577 781.628 178.842 782.728 177.467C783.828 176.091 785.34 175.37 787.262 175.301C788.913 175.301 790.208 175.827 791.152 176.871C792.096 177.92 792.569 179.354 792.569 181.176V196.328H800.453V182.67C800.453 180.573 801.003 178.839 802.104 177.463C803.204 176.088 804.698 175.367 806.589 175.297C808.24 175.297 809.542 175.823 810.507 176.868C811.468 177.916 811.948 179.351 811.948 181.172V196.325H819.833V178.954C819.833 176.788 819.429 174.918 818.621 173.337C817.813 171.756 816.664 170.526 815.166 169.652H815.173Z" fill="white"/>
<path d="M839.782 168.649H831.846V196.328H839.782V168.649Z" fill="white"/>
<path d="M835.816 156.433C834.611 156.433 833.601 156.844 832.776 157.669C831.95 158.495 831.54 159.526 831.54 160.762C831.54 161.998 831.95 163.029 832.776 163.854C833.601 164.68 834.614 165.091 835.816 165.091C837.087 165.091 838.125 164.68 838.933 163.854C839.74 163.029 840.144 161.998 840.144 160.762C840.144 159.526 839.74 158.495 838.933 157.669C838.125 156.844 837.087 156.433 835.816 156.433Z" fill="white"/>
<path d="M868.491 189.443C867.391 189.976 866.137 190.241 864.73 190.241C863.459 190.241 862.324 189.924 861.328 189.287C860.332 188.653 859.548 187.751 858.984 186.581C858.417 185.414 858.135 184.073 858.135 182.562C858.135 181.05 858.417 179.668 858.984 178.515C859.552 177.366 860.332 176.471 861.328 175.834C862.324 175.2 863.459 174.88 864.73 174.88C866.106 174.88 867.325 175.137 868.39 175.653C869.456 176.168 870.347 176.889 871.072 177.819L876.431 174.005C875.195 172.219 873.544 170.836 871.482 169.858C869.421 168.879 867.049 168.388 864.371 168.388C861.694 168.388 859.124 168.98 856.975 170.168C854.826 171.352 853.162 173.013 851.974 175.141C850.79 177.272 850.195 179.745 850.195 182.562C850.195 185.379 850.787 187.793 851.974 189.906C853.158 192.02 854.816 193.661 856.947 194.827C859.078 195.997 861.551 196.579 864.368 196.579C867.185 196.579 869.599 196.063 871.712 195.033C873.826 194.002 875.466 192.543 876.633 190.652L871.169 187.044C870.483 188.109 869.588 188.907 868.488 189.44L868.491 189.443Z" fill="white"/>
<path d="M894.672 168.649H886.735V196.328H894.672V168.649Z" fill="white"/>
<path d="M890.702 156.433C889.497 156.433 888.487 156.844 887.662 157.669C886.836 158.495 886.425 159.526 886.425 160.762C886.425 161.998 886.836 163.029 887.662 163.854C888.487 164.68 889.5 165.091 890.702 165.091C891.973 165.091 893.01 164.68 893.818 163.854C894.626 163.029 895.03 161.998 895.03 160.762C895.03 159.526 894.626 158.495 893.818 157.669C893.01 156.844 891.973 156.433 890.702 156.433Z" fill="white"/>
<path d="M915.646 158.083H907.71V196.328H915.646V158.083Z" fill="white"/>
<path d="M932.706 156.433C931.501 156.433 930.491 156.844 929.666 157.669C928.841 158.495 928.43 159.526 928.43 160.762C928.43 161.998 928.841 163.029 929.666 163.854C930.491 164.68 931.505 165.091 932.706 165.091C933.977 165.091 935.015 164.68 935.823 163.854C936.631 163.029 937.035 161.998 937.035 160.762C937.035 159.526 936.631 158.495 935.823 157.669C935.015 156.844 933.977 156.433 932.706 156.433Z" fill="white"/>
<path d="M936.672 168.649H928.736V196.328H936.672V168.649Z" fill="white"/>
<path d="M970.173 170.969C968.146 169.217 965.259 168.339 961.515 168.339C959.9 168.339 958.406 168.468 957.03 168.726C955.655 168.984 954.314 169.353 953.011 169.833C951.706 170.314 950.365 170.916 948.993 171.637L951.465 176.791C952.907 176.001 954.335 175.391 955.742 174.963C957.149 174.535 958.472 174.319 959.712 174.319C961.602 174.319 963.037 174.747 964.016 175.607C964.994 176.467 965.485 177.651 965.485 179.163V179.678H957.859C954.457 179.713 951.845 180.469 950.024 181.945C948.202 183.422 947.293 185.449 947.293 188.026C947.293 189.676 947.68 191.153 948.453 192.459C949.226 193.765 950.327 194.796 951.751 195.551C953.175 196.307 954.868 196.687 956.828 196.687C959.266 196.687 961.327 196.206 963.013 195.245C964.009 194.677 964.844 193.946 965.527 193.065L965.537 196.328H973.321L973.268 178.237C973.233 175.144 972.203 172.72 970.176 170.969H970.173ZM964.427 188.931C963.824 189.6 963.069 190.133 962.16 190.53C961.247 190.927 960.21 191.122 959.043 191.122C957.702 191.122 956.647 190.805 955.874 190.168C955.101 189.534 954.714 188.667 954.714 187.566C954.714 186.466 955.09 185.609 955.85 185.094C956.605 184.578 957.737 184.32 959.252 184.32H965.503L965.51 186.741C965.353 187.57 964.998 188.301 964.43 188.935L964.427 188.931Z" fill="white"/>
<path d="M993.263 173.636V168.649H985.327V196.328H993.263V183.032C993.263 181.416 993.632 180.026 994.371 178.856C995.109 177.69 996.174 176.795 997.567 176.175C998.96 175.555 1000.58 175.332 1002.44 175.506V168.343C1000.17 168.343 998.194 168.91 996.512 170.042C995.189 170.934 994.109 172.135 993.267 173.64L993.263 173.636Z" fill="white"/>
<path d="M1019.85 168.649H1011.92V196.328H1019.85V168.649Z" fill="white"/>
<path d="M1015.89 156.433C1014.68 156.433 1013.67 156.844 1012.85 157.669C1012.02 158.495 1011.61 159.526 1011.61 160.762C1011.61 161.998 1012.02 163.029 1012.85 163.854C1013.67 164.68 1014.69 165.091 1015.89 165.091C1017.16 165.091 1018.2 164.68 1019.01 163.854C1019.81 163.029 1020.22 161.998 1020.22 160.762C1020.22 159.526 1019.81 158.495 1019.01 157.669C1018.2 156.844 1017.16 156.433 1015.89 156.433Z" fill="white"/>
<path d="M1056.5 196.325L1056.45 178.233C1056.41 175.141 1055.38 172.717 1053.36 170.965C1051.33 169.214 1048.44 168.336 1044.7 168.336C1043.08 168.336 1041.59 168.465 1040.21 168.722C1038.84 168.98 1037.5 169.349 1036.19 169.83C1034.89 170.311 1033.55 170.913 1032.18 171.634L1034.65 176.788C1036.09 175.997 1037.52 175.388 1038.92 174.96C1040.33 174.531 1041.65 174.315 1042.89 174.315C1044.79 174.315 1046.22 174.744 1047.2 175.604C1048.18 176.464 1048.67 177.648 1048.67 179.159V179.675H1041.04C1037.64 179.71 1035.03 180.465 1033.21 181.942C1031.38 183.419 1030.48 185.445 1030.48 188.022C1030.48 189.673 1030.86 191.15 1031.64 192.456C1032.41 193.761 1033.51 194.792 1034.93 195.548C1036.36 196.304 1038.05 196.683 1040.01 196.683C1042.45 196.683 1044.51 196.203 1046.2 195.242C1047.19 194.674 1048.03 193.943 1048.71 193.062L1048.72 196.325H1056.5H1056.5ZM1047.61 188.928C1047.01 189.596 1046.25 190.129 1045.34 190.526C1044.43 190.923 1043.39 191.118 1042.23 191.118C1040.88 191.118 1039.83 190.801 1039.06 190.164C1038.28 189.53 1037.9 188.663 1037.9 187.563C1037.9 186.462 1038.27 185.606 1039.03 185.09C1039.79 184.575 1040.92 184.317 1042.43 184.317H1048.69L1048.69 186.737C1048.54 187.566 1048.18 188.297 1047.61 188.931L1047.61 188.928Z" fill="white"/>
</g>
<defs>
<clipPath id="clip0_311_151">
<rect width="1056" height="250" fill="white" transform="translate(0.5)"/>
</clipPath>
</defs>
</svg>
