<svg width="203" height="250" viewBox="0 0 203 250" fill="none" xmlns="http://www.w3.org/2000/svg">
<g clip-path="url(#clip0_311_195)">
<path d="M126.983 140.978C140.661 133.158 154.339 125.337 168.015 117.516C169.61 116.633 170.128 115.327 170.068 113.488C169.932 109.287 170.025 105.081 170.025 100.877C169.366 96.6386 169.59 92.3664 169.587 88.1049C169.572 73.2694 169.586 58.4357 169.569 43.6002C169.569 42.8121 169.821 41.9755 169.32 41.2303C168.651 41.1963 168.044 41.2572 167.417 41.6298C161.005 45.4238 154.559 49.1604 148.144 52.949C142.438 56.3184 136.782 59.7702 131.064 63.1199C122.794 67.9654 114.489 72.7499 106.2 77.5613C105.374 78.1972 104.639 78.8117 104.648 80.0477C104.691 86.3835 104.69 92.721 104.654 99.0586C104.645 100.646 105.354 100.33 106.25 99.8146C114.593 95.1124 122.94 90.4157 131.279 85.7063C136.603 82.7006 141.91 79.6589 147.247 76.6747C148.203 76.1391 149.275 75.0894 150.278 76.68C150.48 77.0114 150.473 77.3786 150.473 77.7476C150.473 85.4018 150.473 93.0578 150.469 100.712C150.469 101.144 150.559 101.604 150.206 101.966C149.583 102.958 149.807 104.264 148.415 105.027C141.182 108.991 134.041 113.122 126.866 117.188C120.132 121.004 113.396 124.814 106.66 128.626C105.653 129.31 104.591 129.751 104.62 131.413C104.738 138.112 104.657 144.817 104.677 151.518C104.682 153.489 104.74 153.498 106.666 152.6C113.437 148.726 120.211 144.851 126.983 140.978Z" fill="white"/>
<path d="M100.637 132.579C100.634 131.719 100.89 130.818 100.406 129.996C97.2962 128.217 94.1844 126.438 91.0744 124.661C89.6304 123.714 88.1793 122.781 86.6028 122.064C85.2233 121.7 84.2559 120.627 83.0467 119.99C75.7983 116.165 68.8186 111.877 61.7064 107.82C60.7891 107.023 59.5906 106.714 58.6017 106.046C57.8475 105.624 57.0933 105.199 56.3373 104.776C55.1817 103.913 54.7984 102.811 54.8127 101.335C54.8879 93.5736 54.8396 85.8119 54.8611 78.0502C54.8629 77.3391 54.5977 76.5688 55.1298 75.915C55.9001 75.7412 56.6472 75.7162 57.3029 76.2589C58.5086 76.7963 59.8074 77.1546 60.7999 78.0932C61.8551 78.6682 62.9103 79.245 63.9655 79.82C65.1944 80.7157 66.7835 80.9987 67.8834 82.1165C72.4715 84.7407 77.0577 87.3667 81.6475 89.9856C87.6132 93.3891 93.5824 96.7871 99.5499 100.189C101.015 100.511 100.639 99.4114 100.641 98.711C100.662 93.2798 100.673 87.8468 100.637 82.4156C100.628 81.1151 100.908 79.7878 100.406 78.5124C97.7315 76.8841 95.1124 75.1537 92.3696 73.6472C87.7207 71.0928 83.1631 68.3934 78.6718 65.5775C76.7603 64.5063 74.9527 63.2362 72.8495 62.5305C70.4166 60.7839 67.7401 59.4548 65.1568 57.9609C56.1312 52.7375 47.1881 47.3725 38.2145 42.0614C37.9619 41.9145 37.6269 41.9342 37.4101 41.7783C35.7673 40.5907 35.4807 41.5007 35.5147 42.9624C35.5398 44.0407 35.5219 45.1173 35.2944 46.176C35.2944 68.2268 35.3015 90.2794 35.28 112.334C35.28 113.824 35.3983 115.271 35.8927 116.679C40.3482 119.202 44.8036 121.722 49.2609 124.244C50.4056 124.638 51.4483 125.202 52.3046 126.075C55.1853 127.748 58.0517 129.446 60.9504 131.087C67.1292 134.585 73.3242 138.055 79.5138 141.535C80.4669 142.243 81.7568 142.397 82.545 143.375C83.4748 143.939 84.3921 144.529 85.338 145.064C90.0693 147.74 94.8096 150.404 99.5463 153.071C101.152 153.258 100.63 152.04 100.634 151.311C100.666 145.068 100.664 138.827 100.639 132.584L100.637 132.579Z" fill="white"/>
<path d="M53.6984 44.8257C55.0528 45.5135 56.3928 45.8664 57.6791 44.6824C62.5502 41.836 96.8466 21.8523 96.8466 21.8523C96.8466 21.8523 100.062 19.7852 101.895 20.4909C103.755 21.2075 119.516 30.3001 123.094 32.3583C125.969 34.4756 125.98 35.1348 123.479 37.5405C121.478 39.4643 119.138 38.6869 116.863 38.583C114.727 37.2539 102.601 29.7215 102.601 29.7215C100.989 29.2092 99.36 29.4116 97.7298 29.5997C96.7301 30.2392 86.678 36.1271 84.7683 37.2736C83.0753 38.291 83.1255 39.115 84.8167 40.0393C88.2402 41.9112 120.111 60.1412 120.111 60.1412C121.738 61.4148 122.909 61.5026 124.629 60.3974C127.908 58.2908 160.93 38.9072 164.364 36.7398C165.067 36.2973 165.681 35.656 164.889 35.1455C164.889 35.1455 111.961 4.58069 106.252 1.0805C104.733 0.149029 103.088 -0.250429 101.221 0.163359L41.7796 34.1531C41.0146 34.8983 38.7645 34.832 40.3069 36.8383L53.7002 44.8274L53.6984 44.8257Z" fill="white"/>
<path d="M64.0012 214.905C64.4097 213.512 64.2932 192.647 64.3523 188.803C64.3774 187.232 63.8758 186.474 62.1811 186.587C60.6332 186.691 59.0639 186.689 57.5178 186.56C55.3788 186.381 54.5314 187.022 54.5869 189.376C54.7481 196.174 54.603 202.977 54.6478 209.779C54.6604 211.729 53.9187 212.708 51.9033 212.575C51.3873 212.541 50.866 212.579 50.3482 212.575C46.7599 212.561 46.6058 212.426 46.5951 208.804C46.5771 202.151 46.5521 195.497 46.6094 188.844C46.6237 187.271 46.1938 186.499 44.4901 186.581C42.4943 186.676 40.4914 186.641 38.4921 186.605C37.2094 186.581 36.5806 187.078 36.5842 188.419C36.6075 196.256 36.4248 204.099 36.6827 211.927C36.8028 215.609 37.9744 218.701 42.5337 218.952C47.6968 219.235 52.8886 219.128 58.0624 219.007C60.8249 218.945 63.1574 217.784 64.0012 214.905Z" fill="white"/>
<path d="M169.302 219.129C168.372 214.434 167.557 210.189 166.686 205.956C165.488 200.125 164.225 194.305 163.044 188.471C162.756 187.042 162.025 186.551 160.59 186.574C156.593 186.639 152.592 186.623 148.594 186.567C146.981 186.544 146.245 187.155 145.926 188.799C144.475 196.312 142.893 203.801 141.362 211.299C140.851 213.8 140.346 216.302 139.767 219.156C142.547 219.156 144.971 219.219 147.386 219.102C147.856 219.079 148.517 218.441 148.703 217.942C150.217 213.899 150.188 213.888 154.429 213.868C154.946 213.866 155.466 213.865 155.984 213.868C159.463 213.884 159.414 213.893 160.041 217.302C160.163 217.963 160.792 219.02 161.242 219.05C163.847 219.219 166.468 219.133 169.3 219.133L169.302 219.129ZM154.495 207.932C151.34 207.928 150.89 207.282 151.668 204.201C152.313 201.641 152.773 199.033 153.449 196.482C153.597 195.921 154.309 195.509 154.76 195.027C155.169 195.577 155.806 196.075 155.944 196.686C156.528 199.262 156.949 201.874 157.453 204.467C158.08 207.702 157.89 207.935 154.495 207.932Z" fill="white"/>
<path d="M22.6248 207.308L21.0769 207.292C19.2818 207.145 18.3306 207.819 18.2374 209.743C18.1317 211.908 16.9242 212.933 14.6902 212.594C14.3284 212.539 13.9504 212.587 13.5795 212.585C10.4175 212.562 9.92846 212.111 9.91234 209.019C9.89084 204.876 9.90517 200.732 9.9195 196.591C9.93025 193.829 10.8063 192.939 13.61 192.781C16.7308 192.605 18.1747 193.481 18.2858 196.143C18.3718 198.176 19.2012 198.739 21.0178 198.529C21.6036 198.461 22.202 198.518 22.795 198.517C28.8413 198.495 27.8595 198.938 27.8595 193.191C27.8595 189.492 25.2242 186.73 21.6771 186.642C16.7128 186.52 11.745 186.502 6.7808 186.599C2.69978 186.678 0.584028 188.978 0.558947 193.069C0.539241 196.324 0.555364 199.579 0.555364 202.835C0.539241 202.835 0.524909 202.835 0.508785 202.835C0.508785 206.239 0.47833 209.642 0.517743 213.044C0.555364 216.293 1.99393 218.556 5.22758 218.735C11.1055 219.061 17.0371 218.98 22.9132 218.584C26.7148 218.328 28.5009 214.778 27.8344 209.164C27.684 206.603 22.623 207.308 22.623 207.308H22.6248Z" fill="white"/>
<path d="M98.6666 214.472C98.6881 213.03 98.1918 212.512 96.7425 212.541C93.1882 212.612 89.6267 212.466 86.0759 212.602C83.9243 212.684 83.0393 211.894 83.2758 209.779C83.3332 209.268 83.2902 208.745 83.2866 208.227C83.274 206.477 84.0336 205.716 85.8842 205.802C88.6933 205.933 91.5131 205.82 94.3276 205.865C95.5494 205.883 96.1137 205.394 96.0474 204.159C96.008 203.421 95.9865 202.676 96.0546 201.942C96.1943 200.401 95.5315 199.826 93.9961 199.867C91.3304 199.941 88.6593 199.81 85.9953 199.901C83.8294 199.975 83.0214 198.993 83.2257 196.942C83.2776 196.43 83.2669 195.907 83.2507 195.391C83.1952 193.526 84.0892 192.674 85.9559 192.736C88.8402 192.831 91.7281 192.86 94.6124 192.958C98.6289 193.096 98.5806 193.078 98.6558 189.053C98.6899 187.251 98.1596 186.558 96.2821 186.58C89.392 186.662 82.5019 186.653 75.6118 186.587C73.8938 186.571 73.2524 187.128 73.2865 188.887C73.3796 193.544 73.3169 198.203 73.3169 202.862C73.3079 202.862 73.299 202.862 73.2882 202.862C73.2882 207.595 73.342 212.329 73.2596 217.06C73.2309 218.703 73.7934 219.249 75.438 219.231C81.6599 219.16 87.8853 219.231 94.1072 219.195C99.1341 219.167 98.5824 219.849 98.6612 214.474L98.6666 214.472Z" fill="white"/>
<path d="M128.416 186.585C126.969 186.551 126.27 187.208 125.991 188.596C124.672 195.151 120.32 210.613 120.32 210.613C120.32 210.613 116.496 194.771 115.243 188.433C115.109 187.753 114.229 186.759 113.633 186.712C111.159 186.517 108.66 186.63 106.078 186.63C106.078 187.604 105.969 188.272 106.094 188.892C108.02 198.341 109.994 207.781 111.906 217.232C112.198 218.67 112.952 219.204 114.362 219.184C117.25 219.143 120.138 219.177 123.027 219.181C128.432 219.186 128.517 219.204 129.627 214.02C131.537 205.107 133.328 196.17 135.303 186.599C132.791 186.599 130.604 186.637 128.418 186.587L128.416 186.585Z" fill="white"/>
<path d="M199.445 203.346C195.69 201.61 191.952 199.832 188.146 198.212C186.145 197.36 185.694 195.825 186.208 194.085C186.455 193.243 187.546 192.154 188.347 192.072C190.119 191.889 192.512 191.06 193.331 193.585C194.008 195.681 195.262 196.095 197.159 195.918C198.336 195.808 199.553 196.009 200.705 195.808C201.269 195.71 202.054 195.101 202.186 194.581C203.412 189.822 200.963 186.675 196.047 186.626C191.823 186.585 187.586 186.436 183.374 186.669C178.974 186.913 177.027 189.039 177.385 192.683L177.38 196.451C176.964 199.669 178.609 201.408 181.382 202.499C184.547 203.744 187.679 205.073 190.839 206.327C192.679 207.058 194.254 207.961 193.813 210.327C193.367 212.727 191.509 212.664 189.675 212.6C189.23 212.584 188.689 212.742 188.36 212.543C187.562 212.064 186.484 211.559 186.213 210.814C185.801 209.682 185.275 209.252 184.159 209.306C182.457 209.385 180.755 209.458 179.051 209.492C177.858 209.515 177.328 210.006 177.376 211.262C177.455 213.257 177.467 215.26 177.38 217.254C177.317 218.685 177.813 219.248 179.284 219.203C181.95 219.12 194.544 219.077 198.134 218.651C200.773 218.338 201.941 216.869 202.145 214.151C202.29 212.238 202.177 210.307 202.287 208.39C202.419 206.071 201.592 204.342 199.445 203.35V203.346Z" fill="white"/>
<path d="M7.09249 244.999C7.09249 247.082 6.82735 248.705 5.02152 248.705C3.34826 248.705 2.80544 247.226 2.80544 244.818V234.91C2.80544 232.942 3.19599 231.489 4.94449 231.489C6.81302 231.489 7.01008 233.137 7.01008 234.839V235.534H8.47732V234.855C8.47732 232.426 7.97211 230.19 4.99286 230.19C2.66391 230.19 1.35254 231.711 1.35254 234.88V244.773C1.35254 247.536 1.79862 250.002 4.9839 250.002C8.16918 250.002 8.5651 247.593 8.5651 244.965V244.377H7.09249V245.001V244.999Z" fill="white"/>
<path d="M20.158 230.188C17.5263 230.188 16.2883 231.94 16.2883 234.934V245.158C16.2883 248.015 17.1608 250 20.0541 250C22.6625 250 23.9434 248.332 23.9434 245.149V234.914C23.9434 232.32 22.967 230.188 20.1598 230.188H20.158ZM22.4887 245.072C22.4887 247.772 21.6359 248.705 20.1239 248.705C18.6119 248.705 17.7394 247.763 17.7394 245.198V234.955C17.7394 232.526 18.4829 231.487 20.0988 231.487C21.6216 231.487 22.4869 232.566 22.4869 234.975V245.072H22.4887Z" fill="white"/>
<path d="M38.6481 238.491C38.6481 241.626 38.6964 244.347 38.7932 247.099H38.7394C38.3471 245.137 35.3947 234.595 34.1657 230.431H32.4011V249.761H33.7824V241.746C33.7824 238.25 33.6892 234.837 33.5692 232.518H33.5978C34.0833 234.56 36.9891 245.221 38.3077 249.761H40.0257V230.431H38.6481V238.491Z" fill="white"/>
<path d="M51.957 238.712C50.1333 237.302 49.7069 236.612 49.7069 234.516C49.7069 232.84 50.1082 231.455 51.6812 231.455C53.2541 231.455 53.607 232.645 53.607 234.429V235.194H55.0205V234.389C55.0205 231.688 54.1158 230.207 51.7134 230.183C48.9957 230.158 48.2863 232.354 48.2863 234.735C48.2863 237.576 49.2931 238.5 51.3533 240.102C53.3634 241.655 53.8954 242.694 53.8954 245.085C53.8954 247.799 53.177 248.732 51.6417 248.732C50.1064 248.732 49.3683 247.639 49.3683 245.556V244.487H47.9495V245.572C47.9495 248.118 48.8416 250 51.6471 250C54.6712 250 55.3197 247.611 55.3197 244.91C55.3197 241.717 54.4956 240.662 51.957 238.712Z" fill="white"/>
<path d="M61.8567 231.738H65.0008V249.761H66.4196V231.738H69.5207V230.431H61.8567V231.738Z" fill="white"/>
<path d="M83.5984 243.779C83.5984 241.219 83.0788 240.22 81.7836 239.815C83.0322 239.405 83.7524 238.106 83.7524 235.72V234.735C83.7524 231.734 82.536 230.432 79.6571 230.432H76.7979V249.762H78.2167V240.472H79.7628C81.8051 240.472 82.192 241.305 82.192 243.912C82.192 245.232 82.158 248.533 82.3945 249.762H83.7954C83.5679 248.508 83.5984 245.45 83.5984 243.781V243.779ZM79.881 239.218H78.2185V231.684H79.6033C81.7101 231.684 82.3103 232.843 82.3103 234.796V235.792C82.3103 237.832 81.8964 239.218 79.881 239.218Z" fill="white"/>
<path d="M97.9339 245.7C97.9339 247.572 97.3445 248.682 95.6605 248.682C93.9765 248.682 93.3781 247.4 93.3781 245.675V230.431H91.9592V245.691C91.9592 248.61 93.2204 250.001 95.6264 250.001C98.0324 250.001 99.376 248.562 99.376 245.617V230.431H97.9321V245.7H97.9339Z" fill="white"/>
<path d="M113.4 244.999C113.4 247.082 113.135 248.705 111.329 248.705C109.656 248.705 109.113 247.226 109.113 244.818V234.91C109.113 232.942 109.503 231.489 111.252 231.489C113.12 231.489 113.317 233.137 113.317 234.839V235.534H114.785V234.855C114.785 232.426 114.279 230.19 111.3 230.19C108.973 230.19 107.66 231.711 107.66 234.88V244.773C107.66 247.536 108.106 250.002 111.289 250.002C114.473 250.002 114.871 247.593 114.871 244.965V244.377H113.398V245.001L113.4 244.999Z" fill="white"/>
<path d="M128.335 244.999C128.335 247.082 128.07 248.705 126.264 248.705C124.591 248.705 124.048 247.226 124.048 244.818V234.91C124.048 232.942 124.439 231.489 126.187 231.489C128.056 231.489 128.253 233.137 128.253 234.839V235.534H129.72V234.855C129.72 232.426 129.215 230.19 126.236 230.19C123.907 230.19 122.595 231.711 122.595 234.88V244.773C122.595 247.536 123.042 250.002 126.227 250.002C129.412 250.002 129.808 247.593 129.808 244.965V244.377H128.335V245.001V244.999Z" fill="white"/>
<path d="M139.172 230.431H137.753V249.761H139.172V230.431Z" fill="white"/>
<path d="M151.416 230.188C148.784 230.188 147.546 231.94 147.546 234.934V245.158C147.546 248.015 148.418 250 151.312 250C153.92 250 155.201 248.332 155.201 245.149V234.914C155.201 232.32 154.225 230.188 151.417 230.188H151.416ZM153.746 245.072C153.746 247.772 152.894 248.705 151.381 248.705C149.869 248.705 148.997 247.763 148.997 245.198V234.955C148.997 232.526 149.742 231.487 151.356 231.487C152.879 231.487 153.744 232.566 153.744 234.975V245.072H153.746Z" fill="white"/>
<path d="M169.905 238.491C169.905 241.626 169.954 244.347 170.05 247.099H169.997C169.604 245.137 166.652 234.595 165.423 230.431H163.658V249.761H165.04V241.746C165.04 238.25 164.947 234.837 164.827 232.518H164.855C165.341 234.56 168.246 245.221 169.565 249.761H171.283V230.431H169.905V238.491Z" fill="white"/>
<path d="M181.511 240.034H185.907V238.73H181.511V231.738H186.163V230.431H180.092V249.761H186.24L186.45 248.455H181.511V240.034Z" fill="white"/>
<path d="M197.484 238.712C195.66 237.302 195.234 236.612 195.234 234.516C195.234 232.84 195.635 231.455 197.208 231.455C198.781 231.455 199.134 232.645 199.134 234.429V235.194H200.547V234.389C200.547 231.688 199.642 230.207 197.24 230.183C194.522 230.158 193.813 232.354 193.813 234.735C193.813 237.576 194.82 238.5 196.88 240.102C198.89 241.655 199.422 242.694 199.422 245.085C199.422 247.799 198.704 248.732 197.168 248.732C195.633 248.732 194.895 247.639 194.895 245.556V244.487H193.476V245.572C193.476 248.118 194.368 250 197.174 250C200.198 250 200.846 247.611 200.846 244.91C200.846 241.717 200.022 240.662 197.484 238.712Z" fill="white"/>
</g>
<defs>
<clipPath id="clip0_311_195">
<rect width="202" height="250" fill="white" transform="translate(0.5)"/>
</clipPath>
</defs>
</svg>
