<svg width="616" height="250" viewBox="0 0 616 250" fill="none" xmlns="http://www.w3.org/2000/svg">
<g clip-path="url(#clip0_311_221)">
<path d="M544.4 231.024C545.542 229.98 546.115 228.532 546.115 226.677C546.115 224.823 545.542 223.507 544.4 222.529C543.258 221.553 541.609 221.063 539.454 221.063H532.596V237.31H536.174V232.589H539.454C539.573 232.589 539.684 232.582 539.799 232.578L542.437 237.307H546.561L542.99 231.932C543.522 231.694 543.994 231.392 544.398 231.022L544.4 231.024ZM541.841 228.963C541.277 229.493 540.482 229.759 539.456 229.759H536.176V223.847H539.456C540.484 223.847 541.277 224.096 541.841 224.591C542.405 225.089 542.686 225.816 542.686 226.777C542.686 227.738 542.403 228.434 541.841 228.963Z" fill="white"/>
<path d="M550.935 217.759C549.412 216.219 547.629 215.011 545.591 214.133C543.553 213.257 541.358 212.817 539.005 212.817C536.653 212.817 534.409 213.263 532.371 214.159C530.333 215.054 528.552 216.279 527.027 217.835C525.502 219.392 524.311 221.197 523.449 223.251C522.588 225.306 522.158 227.474 522.158 229.76C522.158 232.046 522.581 234.207 523.426 236.244C524.27 238.281 525.455 240.078 526.978 241.635C528.501 243.191 530.284 244.41 532.322 245.286C534.36 246.164 536.553 246.602 538.908 246.602C541.262 246.602 543.505 246.155 545.542 245.26C547.58 244.365 549.369 243.14 550.909 241.583C552.449 240.027 553.651 238.222 554.513 236.17C555.374 234.115 555.804 231.946 555.804 229.66C555.804 227.375 555.372 225.165 554.513 223.128C553.651 221.091 552.458 219.303 550.935 217.763V217.759ZM551.233 234.8C550.569 236.406 549.624 237.822 548.399 239.049C547.174 240.274 545.757 241.243 544.149 241.956C542.541 242.668 540.794 243.023 538.905 243.023C537.017 243.023 535.276 242.676 533.687 241.979C532.096 241.284 530.705 240.322 529.512 239.098C528.318 237.873 527.391 236.465 526.729 234.875C526.066 233.284 525.736 231.579 525.736 229.758C525.736 227.938 526.076 226.224 526.755 224.617C527.433 223.011 528.369 221.595 529.563 220.368C530.756 219.143 532.154 218.173 533.762 217.461C535.368 216.749 537.116 216.394 539.005 216.394C540.894 216.394 542.641 216.734 544.249 217.412C545.855 218.09 547.255 219.043 548.448 220.268C549.641 221.493 550.567 222.909 551.231 224.514C551.892 226.122 552.224 227.836 552.224 229.656C552.224 231.476 551.892 233.193 551.231 234.798L551.233 234.8Z" fill="white"/>
<path d="M612.584 120.841C590.702 108.742 568.811 96.6572 546.919 84.5747C527.375 73.7851 507.817 63.0231 488.287 52.208C457.272 35.0348 426.279 17.8255 395.275 0.63317C393.199 -0.517238 392.675 -0.179133 392.678 2.28117C392.692 14.4274 392.65 26.5737 392.767 38.7178C392.79 41.2207 391.893 42.0075 389.478 41.9798C380.535 41.8799 371.593 41.9118 362.65 41.9096C278.765 41.9096 194.879 41.916 110.995 41.8692C108.618 41.8692 107.468 42.6624 106.836 44.9717C102.196 61.9216 97.457 78.8439 92.7346 95.7704C92.5176 96.5487 92.1496 97.2866 91.6923 98.4455C90.9137 97.4482 90.45 96.9272 90.0692 96.351C86.119 90.3735 81.069 85.4699 74.9852 81.7593C56.3657 70.3998 34.5256 74.1508 19.0672 88.3236C1.5645 104.374 -4.97879 131.382 5.60833 153.867C11.9878 167.415 22.0474 177.162 37.0336 180.514C41.8879 181.598 47.1315 181.141 52.1921 181.069C58.1164 180.984 63.4642 178.494 68.578 175.899C72.4899 173.913 75.9254 170.968 79.5097 168.365C81.0371 167.257 81.8412 167.183 82.6133 169.224C83.3579 171.193 84.4725 173.092 85.7765 174.747C86.4402 175.589 87.8654 176.222 88.9673 176.254C91.3391 176.325 93.7216 175.91 96.1041 175.759C98.3419 175.619 98.7567 174.942 97.8505 172.901C97.023 171.036 96.2658 169.139 95.4936 167.249C92.8197 160.706 92.0794 153.912 93.7471 147.079C96.0637 137.591 98.7993 128.205 101.301 118.759C102.369 114.723 103.264 110.645 104.292 106.598C106.436 98.1627 108.618 89.7377 110.782 81.3085C113.035 72.5284 115.311 63.7525 117.519 54.9597C118.031 52.9204 118.812 51.7508 121.28 51.753C186.206 51.8274 251.131 51.8316 316.058 51.8423C344.675 51.8465 373.292 51.8423 401.91 51.8338C405.092 51.8338 405.781 51.2469 405.851 48.1997C406.019 40.7933 406.113 33.3847 406.23 25.9762C406.253 24.4643 406.124 22.9396 406.279 21.4447C406.441 19.8648 407.162 19.2885 408.819 20.222C414.641 23.501 420.529 26.663 426.39 29.8761C446.098 40.6869 465.796 51.5148 485.518 62.3065C502.274 71.4758 519.059 80.5919 535.822 89.7462C552.033 98.5986 568.236 107.474 584.446 116.331C587.934 118.238 591.44 120.116 595.635 122.383C593.824 123.631 592.722 124.499 591.523 125.2C587.515 127.544 583.465 129.813 579.447 132.139C555.49 146.01 531.535 159.887 507.581 173.762C484.167 187.325 460.763 200.906 437.334 214.441C427.985 219.842 418.551 225.095 409.221 230.528C406.826 231.923 406.139 231.002 406.136 228.775C406.119 219.593 405.983 210.405 406.256 201.232C406.375 197.221 405.724 195.969 401.835 195.969C355.6 195.969 309.365 195.967 263.13 195.969C228.789 195.969 194.449 195.947 160.108 196.009C152.979 196.022 152.313 195.063 154.422 188.258C156.63 181.128 158.423 173.871 160.414 166.675C161.526 162.651 162.637 158.626 163.839 154.628C164.009 154.061 164.619 153.463 165.172 153.248C165.428 153.148 166.108 153.88 166.459 154.339C167.591 155.823 168.657 157.357 169.75 158.869C178.374 170.781 190.184 176.724 204.739 177.722C211.48 178.183 217.778 176.154 223.711 173.698C228.604 171.674 232.794 167.94 237.261 164.91C243.192 160.887 247.087 155.081 250.342 148.953C253.994 142.078 256.053 134.629 256.77 126.808C257.553 118.249 256.928 109.831 253.637 101.903C243.03 76.3645 214.802 63.4017 188.585 77.0152C186.819 77.9317 184.981 78.7121 182.726 79.7647C182.918 78.6228 182.967 78.038 183.118 77.483C183.841 74.8483 183.594 74.489 180.905 74.4677C178.848 74.4507 176.791 74.4677 174.734 74.4677C170.078 74.4656 170.063 74.5421 168.878 79.1586C165.132 93.7652 161.356 108.361 157.553 122.953C154.696 133.917 151.763 144.857 148.893 155.817C144.941 170.921 141.046 186.038 137.066 201.134C136.004 205.157 135.9 205.142 140.15 205.718C141.209 205.863 142.282 205.976 143.347 205.976C158.816 205.976 174.285 205.942 189.755 205.94C255.843 205.933 321.931 205.94 388.021 205.933C392.865 205.933 393.05 206.001 393.056 210.809C393.075 223.043 393.012 235.278 392.952 247.512C392.939 250.168 393.52 250.601 395.919 249.266C401.038 246.414 406.119 243.499 411.184 240.552C417.634 236.803 424.033 232.965 430.489 229.226C435.328 226.424 440.229 223.727 445.094 220.969C450.112 218.124 455.109 215.245 460.133 212.412C464.079 210.188 468.111 208.111 472.001 205.795C478.183 202.118 484.222 198.199 490.431 194.572C497.553 190.412 504.813 186.487 511.984 182.408C517.321 179.374 522.586 176.212 527.932 173.194C531.727 171.051 535.66 169.148 539.43 166.966C544.037 164.299 548.494 161.376 553.101 158.709C557.783 155.998 562.605 153.531 567.298 150.839C573.599 147.222 579.808 143.445 586.105 139.822C594.426 135.033 602.801 130.332 611.14 125.573C612.491 124.803 613.78 123.922 615.507 122.832C614.28 121.987 613.48 121.33 612.591 120.839L612.584 120.841ZM78.912 151.305C69.565 165.422 52.2389 171.959 37.1081 166.951C26.4848 163.434 19.6586 156.002 15.6403 145.708C13.5513 140.356 12.0984 135.025 12.158 129.145C12.241 120.707 15.2999 113.388 19.3203 106.301C23.3705 99.1621 29.2501 94.1458 36.8549 90.9136C41.7156 88.8489 46.6231 87.7091 49.7735 87.8919C68.5078 88.4044 83.4557 101.961 85.9871 118.649C87.7824 130.48 85.5042 141.342 78.9099 151.303L78.912 151.305ZM173.009 113.458C174.996 105.301 179.686 98.5199 185.998 93.14C195.845 84.7491 207.434 82.0038 219.744 85.9569C229.731 89.1636 237.323 95.7407 241.803 105.686C251.627 127.495 240.299 154.737 217.736 162.666C214.249 163.891 210.45 164.234 206.793 164.982C193.535 165.025 180.973 157.014 175.47 144.215C173.518 139.673 172.162 134.829 170.973 130.015C169.572 124.333 171.692 118.857 173.009 113.46V113.458Z" fill="white"/>
<path d="M420.263 108.876C421.616 103.167 422.843 97.4274 424.153 91.7073C424.981 88.0966 425.878 84.5007 426.706 80.89C427.046 79.4079 426.357 78.704 424.859 78.704C421.911 78.704 418.963 78.704 416.017 78.6658C414.066 78.6381 413.173 79.5652 412.813 81.4791C412.224 84.6326 411.437 87.7521 410.633 90.8588C410.348 91.9646 409.767 92.9938 409.167 94.4227C408.42 93.5573 408.061 93.1936 407.761 92.7832C405.823 90.1358 404.136 87.2587 401.924 84.8644C393.385 75.6143 382.87 70.0026 370.154 69.7538C351.752 69.3966 337.697 77.6451 327.246 92.5408C313.962 111.477 313.517 139.973 329.022 158.718C340.528 172.629 355.004 177.741 372.611 174.56C374.272 174.26 376.044 174.079 377.523 173.352C383.8 170.262 389.986 166.988 396.604 163.575C396.872 164.321 397.204 165.304 397.576 166.269C398.599 168.919 399.386 171.706 400.788 174.141C401.435 175.266 403.245 176.191 404.617 176.329C407.159 176.587 409.771 176.248 412.347 176.061C414.751 175.887 415.3 174.856 414.126 172.725C411.707 168.338 410.786 163.52 410.384 158.654C409.771 151.201 411.203 144.037 413.377 136.843C416.153 127.665 418.046 118.22 420.26 108.874L420.263 108.876ZM379.054 159.464C363.715 166.826 343.934 162.027 334.481 144.611C330.881 137.983 328.944 131.023 328.941 123.78C328.941 117.091 330.333 110.448 333.704 104.304C337.703 97.0191 343.081 91.2479 350.231 87.0971C356.451 83.4843 363.232 81.1197 370.356 82.3424C384.6 84.7878 395.642 91.9454 400.62 106.195C402.245 110.845 402.862 115.847 403.521 118.798C402.439 138.238 395.07 151.782 379.059 159.464H379.054Z" fill="white"/>
<path d="M289.207 75.1931C286.259 75.1973 283.291 75.1165 280.375 75.4461C279.441 75.5525 278.19 76.6837 277.865 77.6151C276.991 80.1286 276.574 82.7951 275.914 85.3852C271.305 103.53 266.899 121.73 261.977 139.788C258.841 151.288 259.177 162.354 264.062 173.203C264.644 174.498 266.057 176.15 267.252 176.299C270.122 176.657 273.109 176.361 276.008 175.999C276.684 175.914 277.835 174.36 277.682 173.756C276.791 170.245 275.583 166.813 274.468 163.36C272.549 157.421 272.772 151.379 274.047 145.421C275.197 140.043 277.229 134.838 278.193 129.437C279.499 122.111 281.145 114.924 284.985 108.525C287.618 104.134 290.377 99.5834 294.017 96.0791C301.209 89.1532 310.316 86.0635 320.271 85.7126C327.95 85.4426 327.954 85.5425 330.003 77.9192C330.745 75.1612 330.162 74.1788 327.257 73.7195C318.784 72.3777 310.509 73.207 302.483 76.2287C298.437 77.7512 294.436 79.3886 289.818 81.2088C290.226 79.7926 290.484 78.706 290.854 77.6576C291.42 76.0586 290.89 75.1888 289.207 75.191V75.1931Z" fill="white"/>
<path d="M136.439 118.441C137.971 112.61 139.194 106.696 140.656 100.847C142.1 95.0648 143.672 89.317 145.189 83.5543C145.863 80.9877 145.172 80.0968 142.496 80.1095C140.092 80.1201 137.684 80.218 135.282 80.1414C132.925 80.067 131.821 81.0579 131.238 83.397C127.365 98.9498 123.304 114.456 119.403 130.002C117.437 137.84 115.68 145.73 114.482 150.822C114.587 159.794 115.323 165.712 118.058 171.162C118.588 172.214 120.037 173.293 121.185 173.448C123.529 173.765 125.957 173.49 128.348 173.407C130.917 173.316 131.902 171.991 131.202 169.514C130.643 167.54 129.964 165.603 129.335 163.651C127.441 157.789 127.641 151.775 129.011 145.961C131.19 136.72 134.023 127.633 136.437 118.445L136.439 118.441Z" fill="white"/>
<path d="M139.579 62.0347C137.122 61.6583 135.955 62.7577 135.495 65.0713C135.029 67.421 134.453 69.7537 133.819 72.063C133.072 74.7828 133.521 75.5036 136.295 75.4292C139.037 75.3548 141.785 75.2506 144.512 74.9699C145.357 74.8827 146.625 74.3575 146.865 73.7174C147.958 70.8191 148.85 67.8335 149.62 64.831C150.13 62.847 149.213 61.788 147.059 61.9007C145.638 61.973 144.21 61.9135 142.785 61.9135V62.0602C141.717 62.0602 140.628 62.1942 139.584 62.0326L139.579 62.0347Z" fill="white"/>
</g>
<defs>
<clipPath id="clip0_311_221">
<rect width="615" height="250" fill="white" transform="translate(0.5)"/>
</clipPath>
</defs>
</svg>
