<svg width="380" height="250" viewBox="0 0 380 250" fill="none" xmlns="http://www.w3.org/2000/svg">
<g clip-path="url(#clip0_311_281)">
<path d="M377.795 163.157C376.67 162.446 375.469 161.733 374.201 161.393C371.303 160.617 369.69 158.186 368.522 156.036C366.223 151.801 364.712 147.135 362.937 142.622C362.092 140.47 361.375 138.264 360.628 136.073C359.637 133.165 358.72 130.23 357.683 127.337C356.948 125.285 356 123.309 355.271 121.255C354.389 118.767 353.662 116.227 352.823 113.725C352.239 111.983 351.524 110.285 350.965 108.535C350.315 106.512 349.856 104.425 349.166 102.418C348.006 99.0472 346.689 95.7319 345.513 92.3676C343.993 88.0161 342.58 83.6277 341.059 79.2782C339.977 76.1858 338.778 73.1342 337.659 70.054C335.96 65.3836 334.271 60.7091 332.601 56.0264C331.165 51.9978 329.73 47.9672 328.356 43.9181C327.277 40.7439 326.307 37.5349 325.26 34.3505C324.002 30.5222 322.658 26.7204 321.458 22.8738C320.365 19.3745 318.964 15.906 319.605 12.1063C319.712 11.4747 319.752 10.6551 320.157 10.2831C321.603 8.95659 323.244 7.84469 324.7 6.53044C325.503 5.80688 327.302 5.71695 326.855 4.12063C326.45 2.67966 325.123 2.3608 323.683 2.44052C322.08 2.52841 320.473 2.51205 318.866 2.51001C304.766 2.4957 290.664 2.463 276.564 2.47526C275.075 2.47526 273.566 2.64695 272.112 2.95354C271.665 3.04757 271.203 3.81813 271.064 4.35977C270.983 4.67863 271.424 5.33473 271.793 5.53299C273.417 6.40371 275.104 7.15588 276.758 7.97141C276.962 8.07156 277.172 8.26369 277.266 8.46604C277.864 9.76599 278.773 10.8902 278.683 12.5151C278.548 14.9555 278.632 17.3286 277.703 19.7302C276.227 23.5503 275.336 27.5932 273.911 31.4338C271.806 37.1098 269.406 42.6734 267.213 48.3167C265.89 51.7219 264.767 55.2027 263.466 58.6161C262.905 60.0898 262.01 61.4388 261.459 62.9165C259.98 66.8716 258.612 70.8695 257.187 74.8449C256.805 75.9119 256.362 76.9584 255.958 78.0171C254.973 80.5905 253.981 83.1617 253.015 85.7432C251.841 88.8807 250.671 92.0181 249.537 95.1699C248.641 97.6573 247.894 100.202 246.92 102.659C245.317 106.698 243.511 110.657 241.933 114.706C240.963 117.191 240.356 119.818 239.411 122.315C237.892 126.33 236.244 130.295 234.62 134.27C233.91 136.012 233.134 137.727 232.374 139.448C231.061 142.42 229.92 145.488 228.366 148.329C226.855 151.09 224.89 153.598 223.175 156.251C221.039 159.552 218.133 161.7 214.221 162.348C212.236 162.677 211.209 163.531 211.01 165.408H262.519C262.662 165.216 262.802 165.023 262.945 164.833C262.155 164.067 261.393 162.687 260.566 162.648C258.047 162.528 256.025 161.369 254.095 160.087C252.58 159.082 250.797 157.841 250.17 156.286C249.233 153.964 248.665 151.223 248.904 148.752C249.433 143.243 250.499 137.79 252.946 132.707C253.758 131.018 254.224 129.158 254.802 127.362C255.298 125.819 255.647 124.226 256.205 122.706C257.085 120.306 258.1 117.956 259.027 115.572C259.564 114.189 260.05 112.782 260.536 111.378C260.885 110.373 261.159 109.34 261.528 108.341C262.584 105.482 263.678 102.638 264.742 99.781C265.508 97.7248 266.102 95.5848 267.076 93.6328C267.444 92.897 268.675 92.1305 269.484 92.1591C272.265 92.2573 275.04 92.6681 277.809 93.0258C279.731 93.2751 281.644 93.6001 283.547 93.9537C286.018 94.4136 288.54 94.7345 290.925 95.4846C293.594 96.3226 296.212 97.4161 298.707 98.6854C302.003 100.359 305.213 102.223 308.354 104.175C310.361 105.424 312.332 106.816 314.047 108.433C317.086 111.294 320.183 114.164 322.767 117.42C325.554 120.936 328.325 124.562 329.834 128.925C330.193 129.964 331.029 130.835 331.406 131.869C332.082 133.714 332.55 135.636 333.154 137.51C335.494 144.78 335.543 151.832 330.669 158.154C329.391 159.811 327.388 160.911 325.699 162.24C325.54 162.364 325.229 162.34 324.994 162.319C322.764 162.125 322.46 163.679 322.099 165.451H379.133C379.257 165.279 379.382 165.107 379.508 164.934C378.947 164.329 378.477 163.578 377.803 163.153L377.795 163.157ZM315.133 94.8939C313.704 93.8985 312.254 92.9277 310.751 92.0508C309.154 91.1188 307.492 90.2951 305.846 89.4489C303.349 88.1653 300.89 86.7918 298.321 85.6656C296.298 84.7785 294.172 84.0549 292.024 83.5399C289.657 82.9716 287.215 82.7243 284.803 82.3442C284.393 82.2787 283.974 82.2583 283.562 82.197C281.405 81.872 279.261 81.4326 277.093 81.2425C275.267 81.083 273.419 81.2098 270.922 81.2098C274.691 70.9901 278.181 61.3591 281.797 51.7771C285.442 42.1195 289.218 32.513 293.055 22.5774C301.887 47.7096 310.569 72.4127 319.35 97.3978C317.512 97.085 316.432 95.8014 315.135 94.896L315.133 94.8939Z" fill="white"/>
<path d="M80.6516 49.5164C80.8987 49.6799 81.8707 49.2895 82.0463 48.9277C82.8406 47.2762 83.0387 45.4755 84.2843 43.8731C85.9976 41.6677 86.7389 38.7019 88.4603 36.5026C91.409 32.7316 94.5333 29.0382 98.6418 26.3913C99.8364 25.6207 100.945 24.6703 102.224 24.0878C104.986 22.8267 107.798 21.6575 110.653 20.6254C113.775 19.4971 116.91 18.2707 120.146 17.6289C123.793 16.9054 127.555 16.7357 131.273 16.4312C133.003 16.2881 134.753 16.4128 136.493 16.3821C139.19 16.3351 139.192 16.3229 139.192 19.0147C139.192 59.7279 139.172 100.439 139.227 141.152C139.231 144.907 138.831 148.533 137.855 152.157C136.507 157.16 131.755 162.474 125.752 162.464C124.741 162.464 123.73 163.057 122.689 163.386C123.177 165.342 124.153 165.602 125.513 165.6C143.816 165.561 162.116 165.573 180.419 165.569C181.056 165.569 181.693 165.516 182.279 165.491C182.833 162.957 182.69 162.707 180.468 162.491C178.769 162.325 177.045 162.317 175.638 161.128C173.784 159.56 171.271 158.346 170.219 156.357C168.71 153.508 167.748 150.139 167.474 146.912C166.911 140.292 166.86 133.62 166.782 126.967C166.68 118.262 166.758 109.553 166.758 100.848V72.7457C166.758 63.3191 166.711 53.8904 166.772 44.4638C166.833 35.172 166.484 25.8701 167.023 16.4046C169.075 16.4046 170.86 16.3556 172.639 16.4148C176.139 16.5334 179.661 16.0796 183.092 17.4491C184.844 18.1481 186.851 18.189 188.736 18.5712C190.629 18.9555 192.608 19.1517 194.378 19.8589C197.272 21.0157 199.988 22.608 202.848 23.8527C206.673 25.5185 209.908 27.959 212.681 31.0208C214.613 33.1526 216.614 35.1475 218.18 37.6963C219.879 40.4658 221.59 43.174 222.844 46.1766C223.301 47.2742 223.787 48.4147 224.535 49.3059C224.829 49.6574 226.195 49.6676 226.495 49.3243C226.959 48.7928 227.204 47.7709 227.057 47.0575C226.597 44.8255 225.919 42.6406 225.313 40.4393C224.353 36.9564 223.373 33.4797 222.417 29.9968C222.023 28.5538 221.656 27.1046 221.31 25.6493C221.023 24.4434 220.794 23.2232 220.52 22.0152C220.093 20.1287 219.607 18.2544 219.226 16.3597C218.831 14.4057 219.007 12.1532 218.062 10.5447C217.061 8.84002 217.194 7.14355 216.775 5.45526C216.332 3.66478 215.658 1.93152 215.119 0.280019C212.961 1.05263 211.202 1.89268 209.348 2.28103C207.79 2.60806 206.122 2.44046 204.503 2.4425C169.698 2.46499 134.896 2.48338 100.092 2.48338C98.7215 2.48338 97.29 2.52426 95.9994 2.15431C94.3577 1.68216 92.8323 0.805311 91.023 0C90.1143 3.17423 89.1872 6.15633 88.4113 9.17523C87.2677 13.6208 86.2467 18.099 85.142 22.5548C83.3593 29.7413 81.5562 36.9237 79.749 44.104C79.4917 45.124 79.1834 46.1316 78.8607 47.1332C78.3318 48.7642 79.8205 48.9625 80.6536 49.5184L80.6516 49.5164Z" fill="white"/>
<path d="M16.2725 100.061C16.2194 115.609 16.1806 131.157 15.9213 146.702C15.8825 149.085 14.7614 151.472 14.0059 153.814C13.6669 154.867 13.2462 156.181 12.4274 156.735C10.5405 158.013 9.44602 160.239 7.0446 160.913C5.558 161.33 4.37976 162.642 2.60115 162.346C1.22278 162.117 0.593839 163.006 0.591797 164.259C0.591797 165.641 1.63323 165.583 2.64199 165.583C21.1223 165.573 39.6047 165.577 58.085 165.567C58.7752 165.567 59.4634 165.444 60.2578 165.367C59.9515 163.482 59.8044 162.092 57.4908 162.233C56.0491 162.321 54.1889 161.874 53.1454 160.952C50.7603 158.845 47.8994 157.199 46.764 153.753C45.5429 150.045 44.1625 146.407 44.1605 142.475C44.1278 103.628 44.1196 64.7785 44.187 25.9314C44.1911 23.3356 44.5627 20.6601 45.2734 18.1686C46.2433 14.7675 47.3093 11.1783 50.7072 9.29789C53.2659 7.88348 56.0614 6.90444 58.6976 5.62289C59.3409 5.31017 59.7758 4.5723 60.3068 4.02862C59.8106 3.55238 59.3838 2.81656 58.8018 2.65918C57.8441 2.3996 56.7863 2.47931 55.7714 2.47931C41.0709 2.46909 26.3703 2.46296 11.6698 2.47318C8.4393 2.47523 5.20473 2.49567 1.98037 2.64283C1.50867 2.66531 0.808252 3.39295 0.693898 3.90189C0.585671 4.38222 0.969572 5.33265 1.38206 5.51252C3.26072 6.33213 5.30275 6.79406 7.13445 7.6934C8.67618 8.44965 10.4078 9.35307 11.3451 10.6919C12.8419 12.8257 14.2448 15.2662 14.7941 17.772C15.6722 21.7639 16.0969 25.911 16.2113 30.005C16.4338 37.8639 16.3236 45.7331 16.3215 53.5982C16.3174 69.0871 16.3215 84.5761 16.2705 100.067L16.2725 100.061Z" fill="white"/>
<path d="M0.5 190.323H378.883V185.158H0.5V190.323Z" fill="white"/>
<path d="M73.8985 211.631C70.4128 208.804 66.4635 207.406 61.9404 207.441C59.9413 207.715 57.8993 207.813 55.9532 208.295C50.0048 209.771 45.251 212.927 42.4697 218.587C40.2746 223.051 39.8764 227.784 40.2889 232.684C40.6687 237.195 42.1328 241.186 45.3735 244.391C51.3117 250.264 58.418 250.783 65.9244 248.44C71.6176 246.664 76.1693 243.341 78.5258 237.573C80.723 232.191 80.9558 226.64 79.7061 221.05C78.8668 217.301 76.9412 214.1 73.8985 211.635V211.631ZM73.8046 230.372C73.4513 235.22 72.1056 239.79 68.9589 243.58C63.423 250.243 52.3817 248.072 49.0736 240.616C47.4482 236.953 46.6293 233.148 46.8254 229.585C46.5967 223.398 48.267 218.337 52.2245 214.1C59.196 206.638 69.5776 211.206 72.2037 218.932C73.4656 222.648 74.0925 226.46 73.8087 230.372H73.8046Z" fill="white"/>
<path d="M290.472 209.324C285.256 206.873 279.831 207.08 274.432 208.801C266.01 211.484 262.018 217.483 260.723 224.7C260.015 228.655 260.101 232.627 261.189 236.59C262.463 241.228 265.122 244.796 269.147 247.198C274.873 250.618 281.058 250.446 287.021 248.095C290.112 246.875 293.288 245.058 295.524 242.665C299.346 238.573 300.755 233.248 300.884 227.586C300.641 225.812 300.443 224.032 300.145 222.268C299.142 216.3 295.926 211.887 290.472 209.324ZM289.504 243.126C286.784 246.399 283.351 247.848 278.793 247.411C272.775 246.834 268.798 241.536 267.703 235.752C266.543 229.628 266.535 223.646 269.588 217.988C271.538 214.37 274.372 211.45 278.346 210.538C282.538 209.575 287.87 211.18 290.907 215.889C293.408 219.768 293.796 224.153 294.209 228.424C293.87 233.822 292.973 238.953 289.504 243.126Z" fill="white"/>
<path d="M323.773 229.362C326.189 228.348 328.433 227.662 330.424 226.525C336.254 223.196 336.773 215.406 331.527 211.314C328.897 209.262 325.805 208.383 322.544 208.291C318.231 208.169 313.912 208.258 309.595 208.265C309.009 208.265 308.425 208.324 307.682 208.363V210.46C307.682 219.819 307.682 229.176 307.682 238.535C307.682 241.474 307.649 244.416 307.725 247.353C307.737 247.856 308.197 248.749 308.509 248.777C310.155 248.921 311.819 248.845 313.665 248.845C313.665 248.044 313.665 247.459 313.665 246.875C313.665 241.775 313.63 236.677 313.71 231.58C313.72 230.893 314.135 229.83 314.649 229.605C316.354 228.861 318.421 229.611 319.499 231.148C323.171 236.385 326.822 241.636 330.475 246.887C331.733 248.696 332.821 250.762 335.66 249.444C336.156 249.213 336.85 249.448 337.442 249.378C338.118 249.299 338.782 249.115 339.821 248.902C336.971 245.434 334.361 242.261 331.753 239.087C329.105 235.862 326.456 232.634 323.773 229.364V229.362ZM314.99 227.606C314.564 227.61 313.759 226.946 313.753 226.578C313.669 221.679 313.698 216.778 313.698 211.57C316.391 211.218 318.856 210.789 321.339 210.605C324 210.409 327.361 213.517 328.202 216.547C329.834 222.423 326.418 226.813 321.047 227.236C319.029 227.396 317.012 227.586 314.992 227.606H314.99Z" fill="white"/>
<path d="M115.356 208.447V236.968C115.19 237.074 115.025 237.18 114.86 237.284C114.657 236.945 114.49 236.581 114.249 236.275C111.886 233.26 109.524 230.245 107.137 227.251C102.667 221.642 98.1578 216.064 93.7144 210.433C91.9297 208.173 90.3267 207.635 87.3433 208.641V210.212C87.3433 222.398 87.3433 234.586 87.3433 246.772C87.3433 249.049 87.4086 249.096 90.2429 248.653V216.59C90.4063 216.559 90.5717 216.528 90.7351 216.498C99.6424 227.631 108.55 238.762 117.541 250C118.494 248.538 118.882 214.535 118.249 208.447H115.354H115.356Z" fill="white"/>
<path d="M192.595 208.41H189.933V210.333C189.933 218.017 189.988 225.7 189.896 233.381C189.871 235.513 189.71 237.728 189.091 239.748C187.499 244.947 183.866 247.061 177.699 246.724C173.578 246.499 169.996 245.344 168.661 240.87C168.224 239.402 167.883 237.845 167.869 236.324C167.797 227.742 167.838 219.159 167.84 210.577C167.84 209.878 167.84 209.176 167.84 208.369H161.036C161.324 218.705 161.314 228.841 162.008 238.928C162.353 243.93 165.639 247.504 170.754 248.849C174.04 249.714 177.297 249.867 180.666 249.401C185.646 248.714 189.951 246.382 191.595 241.003C192.232 238.92 192.595 236.678 192.628 234.501C192.747 226.401 192.679 218.297 192.673 210.194C192.673 209.614 192.62 209.033 192.591 208.412L192.595 208.41Z" fill="white"/>
<path d="M359.66 207.042C353.605 220.878 347.548 234.713 341.447 248.657C343.637 248.954 345.095 248.236 345.821 246.503C346.785 244.189 347.844 241.908 348.649 239.541C349.066 238.317 349.703 237.994 350.873 238.002C355.853 238.033 360.836 238.061 365.814 237.961C367.154 237.935 367.728 238.486 368.167 239.6C369.22 242.268 370.317 244.917 371.456 247.547C371.671 248.044 372.147 248.765 372.541 248.79C374.487 248.919 376.445 248.849 378.812 248.849C372.602 234.679 366.547 220.864 360.493 207.049C360.215 207.049 359.935 207.045 359.658 207.042H359.66ZM350.387 235.232C353.021 228.855 355.569 222.693 358.116 216.528C358.291 216.522 358.465 216.516 358.641 216.51C361.144 222.634 363.65 228.755 366.298 235.232H350.387Z" fill="white"/>
<path d="M147.92 228.884C145.094 226.885 142.027 225.234 139.119 223.343C136.687 221.763 134.481 219.942 133.534 217.011C132.654 214.286 134.012 210.82 136.491 210.376C138.067 210.094 139.831 210.393 141.428 210.777C144.416 211.496 147.344 212.467 150.43 213.373C151.569 211.092 151.397 209.43 149.858 209.001C145.043 207.658 140.156 206.881 135.227 208.3C128.435 210.252 124.857 218.654 130.693 224.451C132.405 226.151 134.528 227.455 136.534 228.835C139.378 230.793 142.496 232.41 145.124 234.617C148.596 237.534 147.965 243.294 144.248 245.8C141.144 247.891 137.745 247.586 134.408 246.852C132.08 246.341 129.862 245.328 127.577 244.53C127.136 247.083 127.134 247.153 129.335 247.889C133.669 249.336 138.057 250.069 142.684 249.493C146.26 249.048 149.229 247.713 151.491 244.956C153.858 242.072 154.467 238.797 153.272 235.226C152.329 232.404 150.209 230.499 147.92 228.882V228.884Z" fill="white"/>
<path d="M33.8442 245.836C30.236 247.463 26.4296 247.473 22.5906 247.153C18.1921 246.783 14.6329 244.859 11.8577 241.417C9.43386 238.411 8.49044 234.877 8.20048 231.144C7.72264 224.978 8.68444 219.189 13.2667 214.576C15.7233 212.103 18.5821 210.327 22.2271 210.315C26.1029 210.302 29.7438 211.331 33.3031 212.802C33.8728 213.037 35.1266 212.882 35.3329 212.508C36.117 211.079 35.5269 209.191 34.3792 208.892C27.6426 207.132 21.0407 206.993 14.4164 209.746C3.21181 214.405 -0.331105 225.399 2.17854 235.433C4.05108 242.918 11.5188 248.692 19.2703 249.44C23.9404 249.889 28.5635 249.765 33.1663 248.79C36.5111 248.08 36.8623 247.708 36.4866 244.418C35.4942 244.957 34.6978 245.456 33.8463 245.84L33.8442 245.836Z" fill="white"/>
<path d="M226.659 210.996C226.579 212.586 227.212 212.67 228.645 212.351C231.467 211.725 234.359 211.403 237.228 211.004C238.776 210.789 239.329 211.533 239.321 213.091C239.268 223.65 239.282 234.211 239.276 244.77C239.274 248.835 239.278 248.737 243.285 248.913C245.145 248.995 245.59 248.412 245.576 246.601C245.488 235.323 245.535 224.042 245.502 212.762C245.498 211.472 245.913 210.808 247.267 210.975C249.556 211.261 251.847 211.529 254.128 211.862C255.374 212.044 256.601 212.345 257.948 212.615V208.365H226.665C226.665 209.33 226.699 210.164 226.656 210.992L226.659 210.996Z" fill="white"/>
<path d="M219.15 245.757C216.23 246.211 213.367 247.159 210.339 246.129C209.005 245.675 208.258 245.307 208.27 243.645C208.356 232.549 208.315 221.45 208.315 210.352C208.315 209.718 208.315 209.082 208.315 208.381H202.234C202.156 208.663 202.066 208.833 202.066 209.003C202.066 221.841 202.089 234.677 202.056 247.515C202.054 248.71 202.548 248.892 203.561 248.886C210.034 248.851 216.51 248.814 222.983 248.898C224.335 248.917 224.821 248.263 225.043 247.22C225.186 246.552 225.07 245.828 225.07 244.851C222.981 245.17 221.063 245.458 219.146 245.755L219.15 245.757Z" fill="white"/>
</g>
<defs>
<clipPath id="clip0_311_281">
<rect width="379" height="250" fill="white" transform="translate(0.5)"/>
</clipPath>
</defs>
</svg>
