<svg width="620" height="631" viewBox="0 0 620 631" fill="none" xmlns="http://www.w3.org/2000/svg">
<g clip-path="url(#clip0_220_6063)">
<path d="M189.23 204.416V314.721L163.416 314.788V341.543L136.637 314.788H0V204.416H189.23Z" fill="#EBEBEB"/>
<path d="M58.8345 259.602C58.8345 264.553 54.8209 268.565 49.8677 268.565C44.9145 268.565 40.9009 264.553 40.9009 259.602C40.9009 254.651 44.9145 250.639 49.8677 250.639C54.8209 250.639 58.8345 254.651 58.8345 259.602Z" fill="white"/>
<path d="M103.588 259.602C103.588 264.553 99.5744 268.565 94.6211 268.565C89.6679 268.565 85.6543 264.553 85.6543 259.602C85.6543 254.651 89.6679 250.639 94.6211 250.639C99.5744 250.639 103.588 254.651 103.588 259.602Z" fill="white"/>
<path d="M148.328 259.602C148.328 264.553 144.315 268.565 139.361 268.565C134.408 268.565 130.395 264.553 130.395 259.602C130.395 254.651 134.408 250.639 139.361 250.639C144.315 250.639 148.328 254.651 148.328 259.602Z" fill="white"/>
<path d="M267.394 396.246V539.128L300.832 539.222V573.88L335.504 539.222H512.505V396.246H267.394Z" stroke="#EBEBEB" stroke-miterlimit="10"/>
<path d="M436.287 467.734C436.287 474.148 441.482 479.34 447.898 479.34C454.315 479.34 459.51 474.148 459.51 467.734C459.51 461.32 454.315 456.128 447.898 456.128C441.482 456.128 436.287 461.32 436.287 467.734Z" fill="#EBEBEB"/>
<path d="M378.338 467.734C378.338 474.148 383.533 479.34 389.95 479.34C396.366 479.34 401.561 474.148 401.561 467.734C401.561 461.32 396.366 456.128 389.95 456.128C383.533 456.128 378.338 461.32 378.338 467.734Z" fill="#EBEBEB"/>
<path d="M320.376 467.734C320.376 474.148 325.571 479.34 331.987 479.34C338.404 479.34 343.598 474.148 343.598 467.734C343.598 461.32 338.404 456.128 331.987 456.128C325.571 456.128 320.376 461.32 320.376 467.734Z" fill="#EBEBEB"/>
<path d="M293.583 16.9868V177.433L331.142 177.527V216.451L370.083 177.527H568.83V16.9868H293.583Z" stroke="#EBEBEB" stroke-miterlimit="10"/>
<path d="M483.242 97.2637C483.242 104.469 489.081 110.306 496.29 110.306C503.498 110.306 509.324 104.469 509.324 97.2637C509.324 90.0585 503.485 84.2354 496.29 84.2354C489.095 84.2354 483.242 90.072 483.242 97.2637Z" fill="#EBEBEB"/>
<path d="M418.166 97.2637C418.166 104.469 424.005 110.306 431.2 110.306C438.395 110.306 444.247 104.469 444.247 97.2637C444.247 90.0585 438.408 84.2354 431.2 84.2354C423.991 84.2354 418.166 90.072 418.166 97.2637Z" fill="#EBEBEB"/>
<path d="M353.089 97.2637C353.089 104.469 358.928 110.306 366.123 110.306C373.318 110.306 379.171 104.469 379.171 97.2637C379.171 90.0585 373.331 84.2354 366.123 84.2354C358.915 84.2354 353.089 90.072 353.089 97.2637Z" fill="#EBEBEB"/>
<path d="M526.239 472.335C556.053 464.422 573.806 433.848 565.889 404.047C557.973 374.245 527.386 356.501 497.571 364.414C467.756 372.327 450.004 402.9 457.921 432.702C465.837 462.503 496.424 480.247 526.239 472.335Z" fill="#EBEBEB"/>
<path opacity="0.5" d="M495.082 471.638C465.671 462.354 449.362 430.983 458.651 401.586C467.94 372.175 499.324 355.872 528.734 365.157C540.037 368.726 549.393 375.556 556.118 384.277C550.373 377.381 542.654 372 533.459 369.102C507.888 361.025 480.598 375.193 472.517 400.767C464.436 426.328 478.625 453.605 504.196 461.683C529.781 469.76 557.058 455.578 565.138 430.017C567.313 423.121 567.877 416.103 567.031 409.381C568.414 417.754 567.89 426.569 565.165 435.223C555.876 464.621 524.492 480.937 495.082 471.638Z" fill="#DBDBDB"/>
<path d="M497.296 402.203C495.994 406.349 491.565 408.643 487.43 407.328C483.282 406.027 480.987 401.599 482.302 397.466C483.605 393.32 488.034 391.026 492.169 392.341C496.317 393.642 498.612 398.07 497.296 402.203Z" fill="#C7C7C7"/>
<path d="M548.171 418.263C546.869 422.409 542.44 424.704 538.305 423.389C534.157 422.087 531.862 417.66 533.177 413.527C534.48 409.381 538.909 407.087 543.044 408.401C547.191 409.703 549.487 414.131 548.171 418.263Z" fill="#C7C7C7"/>
<path d="M527.258 409.166C526.412 411.85 524.694 414.01 522.519 415.459C519.633 417.378 515.942 418.022 512.371 416.895C508.814 415.768 506.156 413.124 504.908 409.904C503.968 407.476 503.807 404.725 504.653 402.042L527.258 409.18V409.166Z" fill="#C7C7C7"/>
<path d="M522.519 415.459C519.633 417.378 515.942 418.022 512.371 416.895C508.814 415.768 506.156 413.125 504.908 409.904C507.834 408.603 511.338 408.348 514.747 409.435C518.157 410.508 520.868 412.722 522.519 415.473V415.459Z" fill="#DBDBDB"/>
<path d="M129.066 52.2221C135.899 87.2283 113.052 121.134 78.0303 127.964C43.0087 134.793 9.08773 111.957 2.25522 76.9505C-4.5773 41.9577 18.2693 8.03829 53.291 1.20879C88.3126 -5.62072 122.234 17.2159 129.066 52.2221Z" fill="#EBEBEB"/>
<path opacity="0.5" d="M78.0303 127.963C43.0221 134.792 9.08773 111.942 2.25522 76.9492C-4.5773 41.943 18.2693 8.03698 53.291 1.20747C66.7412 -1.42236 80.0304 0.335336 91.6819 5.48765C82.0305 1.66367 71.2112 0.469511 60.2712 2.60289C29.8269 8.53343 9.96025 38.0117 15.8934 68.456C21.84 98.8868 51.3312 118.745 81.7754 112.801C112.233 106.857 132.1 77.3786 126.153 46.9477C124.556 38.7362 121.24 31.3029 116.649 24.943C122.69 32.6849 127.039 41.9296 129.053 52.2208C135.885 87.2136 113.039 121.133 78.0169 127.963H78.0303Z" fill="#DBDBDB"/>
<path d="M24.7261 63.2233C23.7194 60.8618 23.8939 58.0039 25.0349 55.5217C25.5852 54.2604 26.4846 53.1334 27.5853 52.2075C28.6995 51.2952 30.0821 50.678 31.4915 50.3962C32.901 50.1413 34.4044 50.1949 35.787 50.6243C37.1562 51.0805 38.418 51.7916 39.3979 52.7577C41.3846 54.6361 42.6061 57.2391 42.539 59.8019C41.4383 57.5343 39.8409 55.7363 38.0019 54.5019C36.1494 53.2675 34.0688 52.8248 32.0419 53.2004C30.015 53.5896 28.2431 54.7837 26.9813 56.6219C25.7329 58.4601 24.9006 60.7142 24.7261 63.2233Z" fill="#C7C7C7"/>
<path d="M102.42 44.3984C103.387 49.3226 100.165 54.0993 95.2389 55.0653C90.3125 56.0314 85.5338 52.8112 84.5673 47.887C83.6008 42.9627 86.8224 38.1861 91.7488 37.2201C96.6752 36.254 101.454 39.4742 102.42 44.3984Z" fill="#C7C7C7"/>
<path d="M49.3443 57.1182C49.3443 57.1182 52.8881 63.0487 62.7812 63.1292C62.7812 63.1292 59.573 81.4441 48.3913 75.9429C37.2096 70.4417 49.3443 57.1316 49.3443 57.1316V57.1182Z" fill="#DBDBDB"/>
<path d="M46.3242 51.3219C48.1364 54.9446 50.7405 58.0843 53.989 59.9494C57.2509 61.801 61.0765 62.1364 64.7948 61.4387C68.4997 60.8215 71.9361 59.0906 74.2986 56.1656C76.6611 53.254 78.0706 49.4435 78.6746 45.4316C79.2652 49.4569 78.4867 53.8444 76.0973 57.4805C74.9295 59.3187 73.265 60.8349 71.3991 62.0022C69.5064 63.1159 67.399 63.8539 65.2915 64.243C63.184 64.5918 60.9826 64.6723 58.808 64.3101C56.6468 63.9075 54.5393 63.0891 52.7809 61.801C49.2371 59.2382 47.0088 55.3203 46.3242 51.3085V51.3219Z" fill="#C7C7C7"/>
<path d="M51.1299 71.2738C51.3581 69.4624 51.989 67.8389 52.7138 66.2557C53.479 64.6858 54.3381 63.1696 55.5865 61.8413C55.3583 63.6527 54.7274 65.2896 54.0025 66.8595C53.2374 68.4159 52.3783 69.9455 51.1299 71.2738Z" fill="#C7C7C7"/>
<path d="M396.959 561.055C400.914 541.056 387.9 521.64 367.892 517.687C347.885 513.735 328.46 526.743 324.505 546.742C320.551 566.74 333.565 586.157 353.572 590.109C373.58 594.062 393.005 581.054 396.959 561.055Z" fill="#EBEBEB"/>
<path opacity="0.5" d="M366.566 590.41C346.431 593.617 327.491 579.891 324.283 559.764C321.075 539.625 334.793 520.706 354.928 517.499C362.66 516.265 370.218 517.526 376.782 520.706C371.345 518.331 365.184 517.432 358.888 518.439C341.371 521.229 329.437 537.679 332.229 555.189C335.022 572.699 351.492 584.627 368.996 581.836C386.514 579.045 398.447 562.582 395.655 545.086C394.903 540.363 393.158 536.056 390.661 532.326C393.964 536.874 396.259 542.241 397.212 548.158C400.42 568.285 386.702 587.217 366.553 590.423L366.566 590.41Z" fill="#DBDBDB"/>
<path d="M347.317 548.695C347.774 551.526 345.841 554.196 342.995 554.652C340.163 555.108 337.491 553.176 337.035 550.332C336.579 547.501 338.512 544.831 341.357 544.374C344.203 543.918 346.861 545.85 347.317 548.695Z" fill="#C7C7C7"/>
<path d="M382.151 543.14C382.607 545.971 380.674 548.641 377.828 549.097C374.996 549.554 372.325 547.622 371.868 544.777C371.412 541.946 373.345 539.276 376.191 538.82C379.023 538.363 381.694 540.296 382.151 543.14Z" fill="#C7C7C7"/>
<path d="M367.667 551.995C368.459 556.987 365.949 561.522 362.056 562.139C358.164 562.756 354.365 559.227 353.573 554.236C352.781 549.245 355.291 544.71 359.184 544.093C363.076 543.475 366.875 547.004 367.667 551.995Z" fill="#C7C7C7"/>
<path d="M334.417 543.247C334.417 543.247 337.384 537.25 345.196 539.491L334.417 543.247Z" fill="#C7C7C7"/>
<path d="M382.446 535.599C382.446 535.599 377.761 530.823 371.036 535.371L382.446 535.599Z" fill="#C7C7C7"/>
<path d="M227.003 324.985C226.815 318.8 257.904 282.13 260.521 280.855C296.08 263.493 336.417 240.348 325.464 220.584C315.007 201.706 247.917 227.038 232.52 232.432C217.486 237.705 175.417 280.184 168.289 296.728C161.161 313.272 141.778 397.212 141.778 397.212L216.573 409.1C216.573 409.1 227.285 334.015 227.016 324.972L227.003 324.985Z" fill="#D8AB87"/>
<g opacity="0.1">
<path d="M227.003 324.985C226.815 318.8 257.904 282.13 260.521 280.855C296.08 263.493 336.417 240.348 325.464 220.584C315.007 201.706 247.917 227.038 232.52 232.432C217.486 237.705 175.417 280.184 168.289 296.728C161.161 313.272 141.778 397.212 141.778 397.212L216.573 409.1C216.573 409.1 227.285 334.015 227.016 324.972L227.003 324.985Z" fill="black"/>
</g>
<path d="M247.474 374.12C248.386 368.002 285.489 337.423 288.281 336.632C326.363 325.844 370.163 310.226 362.888 288.838C355.948 268.404 285.422 281.432 269.314 284.022C253.581 286.544 204.64 320.893 194.693 335.92C184.746 350.948 150.771 430.111 150.771 430.111L222.265 455.068C222.265 455.068 246.131 383.069 247.46 374.133L247.474 374.12Z" fill="#D8AB87"/>
<g opacity="0.1">
<path d="M247.474 374.12C248.386 368.002 285.489 337.423 288.281 336.632C326.363 325.844 370.163 310.226 362.888 288.838C355.948 268.404 285.422 281.432 269.314 284.022C253.581 286.544 204.64 320.893 194.693 335.92C184.746 350.948 150.771 430.111 150.771 430.111L222.265 455.068C222.265 455.068 246.131 383.069 247.46 374.133L247.474 374.12Z" fill="black"/>
</g>
<path d="M139.12 630.877C139.12 630.877 51.2505 457.027 55.1568 412.588C55.8279 404.967 76.0973 317.619 84.0976 306.469C105.548 276.602 201.619 169.128 221.567 179.781C268.361 204.791 165.229 320.705 165.229 320.705C170.303 347.916 162.933 405.571 162.933 405.571C177.967 399.734 326.712 507.839 326.524 550.332L407.333 630.877H139.12Z" fill="#D8AB87"/>
<path d="M430.891 466.191L424.77 484.68H424.756C423.052 487.699 419.709 489.605 415.132 489.698L247.111 493.563C237.728 493.777 226.667 486.331 222.439 476.938L69.3719 137.06C67.439 132.753 67.251 128.781 68.5397 125.722L74.6071 107.38L257.246 113.848L264.964 129.479C267.045 131.693 268.763 134.175 269.958 136.818L284.724 169.624L430.891 466.204V466.191Z" fill="#263238"/>
<path d="M421.24 471.223L253.219 475.087C243.836 475.302 232.775 467.855 228.547 458.463L75.4933 118.571C71.2515 109.165 75.453 101.383 84.8225 101.168L252.843 97.3039C262.24 97.0892 273.287 104.522 277.529 113.928L430.596 453.82C434.824 463.212 430.636 471.008 421.24 471.223Z" fill="#37474F"/>
<path d="M423.333 489.054L424.555 485.351C424.381 486.72 423.964 487.954 423.333 489.054Z" fill="#37474F"/>
<path d="M185.001 113.821L166.007 114.264C165.363 114.277 164.598 113.781 164.316 113.136C164.034 112.506 164.316 111.969 164.974 111.956L183.968 111.513C184.612 111.5 185.377 111.996 185.659 112.64C185.941 113.271 185.659 113.807 185.001 113.821Z" fill="#263238"/>
<path d="M274.924 123.16L422.891 447.943C427.079 457.121 423.414 464.702 414.729 464.89L259.514 468.231C250.816 468.419 240.386 461.146 236.211 451.969L88.2451 127.185C79.7213 108.481 86.3524 107.421 95.0508 107.233L126.139 106.562C127.952 106.522 130.341 108.494 131.468 110.976L131.952 112.05C134.61 117.873 137.871 117.819 141.885 117.739L213.781 116.182C217.821 116.089 221.043 116.008 218.398 110.185L217.915 109.111C216.788 106.629 217.325 104.59 219.164 104.549L250.266 103.879C258.951 103.691 267.125 106.025 274.924 123.16Z" fill="white"/>
<path d="M274.924 123.16L289.704 155.59L103.024 159.615L88.2451 127.185C79.7213 108.481 86.3524 107.421 95.0508 107.233L126.139 106.562C127.952 106.522 130.341 108.494 131.468 110.976L131.952 112.05C134.61 117.873 137.871 117.819 141.885 117.739L213.781 116.182C217.821 116.102 221.043 116.008 218.398 110.185L217.915 109.111C216.788 106.629 217.325 104.59 219.164 104.549L250.266 103.879C258.951 103.691 267.125 106.025 274.924 123.16Z" fill="#F58020"/>
<path d="M117.025 148.465L109.199 143.541L112.421 138.375L113.683 139.247L111.038 143.5L117.468 147.553L117.025 148.465Z" fill="white"/>
<path d="M266.616 136.966C266.884 137.556 266.616 138.039 266.012 138.053C265.407 138.066 264.709 137.597 264.441 137.02C264.173 136.443 264.441 135.946 265.045 135.933C265.649 135.919 266.347 136.389 266.616 136.966Z" fill="white"/>
<path d="M268.334 140.736C268.602 141.327 268.334 141.81 267.73 141.823C267.126 141.823 266.428 141.367 266.159 140.79C265.891 140.2 266.159 139.717 266.763 139.703C267.367 139.703 268.065 140.159 268.334 140.736Z" fill="white"/>
<path d="M270.052 144.507C270.321 145.097 270.052 145.58 269.448 145.594C268.844 145.594 268.146 145.137 267.878 144.56C267.609 143.97 267.878 143.487 268.482 143.474C269.086 143.474 269.784 143.93 270.052 144.507Z" fill="white"/>
<path d="M124.099 113.982C124.045 114.076 123.992 114.183 123.938 114.277C123.911 114.331 123.871 114.385 123.844 114.452C122.689 113.7 121.535 113.311 120.421 113.338C119.293 113.365 118.515 113.794 118.058 114.572C117.978 114.519 117.897 114.465 117.817 114.411C117.669 114.317 117.535 114.224 117.387 114.13C117.387 114.13 117.387 114.13 117.401 114.116C117.481 114.009 117.548 113.888 117.629 113.781C117.803 113.553 118.018 113.378 118.26 113.217C118.555 113.029 118.877 112.895 119.253 112.815C119.428 112.774 119.615 112.748 119.803 112.721C119.871 112.721 120.3 112.694 120.314 112.707C120.448 112.707 120.582 112.707 120.73 112.734C121.119 112.761 121.508 112.842 121.911 112.962C122.206 113.043 122.488 113.15 122.783 113.271C123.092 113.405 123.387 113.553 123.683 113.727C123.83 113.821 123.978 113.902 124.126 113.995L124.099 113.982Z" fill="white"/>
<path d="M119.414 115.471C119.186 115.324 118.958 115.176 118.729 115.015C119.038 114.478 119.521 114.143 120.233 114.022C121.293 113.848 122.408 114.156 123.562 114.894C123.468 115.055 123.387 115.216 123.293 115.364C122.528 114.867 121.75 114.599 120.998 114.626C120.246 114.639 119.723 114.935 119.414 115.458V115.471Z" fill="white"/>
<path d="M123.038 115.86C122.958 116.021 122.864 116.169 122.77 116.33C122.381 116.075 121.978 115.941 121.589 115.954C121.199 115.954 120.931 116.115 120.783 116.384C120.555 116.236 120.327 116.089 120.099 115.928C120.501 115.136 121.817 115.055 123.025 115.86H123.038Z" fill="white"/>
<path d="M122.394 116.759C122.502 116.988 122.394 117.175 122.153 117.189C121.911 117.189 121.643 117.014 121.535 116.786C121.428 116.558 121.535 116.37 121.777 116.357C122.019 116.357 122.287 116.531 122.394 116.759Z" fill="white"/>
<path d="M95.2117 115.498C94.9029 114.827 95.2117 114.277 95.8963 114.264C96.5808 114.251 97.3862 114.774 97.6816 115.445C97.9903 116.116 97.6816 116.666 96.997 116.679C96.3124 116.692 95.507 116.169 95.2117 115.498Z" fill="white"/>
<path d="M99.1042 115.418C98.7955 114.747 99.1042 114.197 99.7888 114.183C100.473 114.17 101.279 114.693 101.574 115.364C101.883 116.035 101.574 116.585 100.89 116.599C100.205 116.612 99.3996 116.089 99.1042 115.418Z" fill="white"/>
<path d="M102.997 115.324C102.689 114.653 102.997 114.103 103.682 114.09C104.366 114.076 105.172 114.599 105.467 115.27C105.776 115.941 105.467 116.491 104.783 116.505C104.098 116.518 103.293 115.995 102.997 115.324Z" fill="white"/>
<path d="M106.904 115.243C106.595 114.573 106.904 114.022 107.588 114.009C108.273 113.996 109.078 114.519 109.373 115.19C109.682 115.861 109.373 116.411 108.689 116.424C108.004 116.438 107.199 115.914 106.904 115.243Z" fill="white"/>
<path d="M110.796 115.163C110.487 114.492 110.796 113.942 111.481 113.928C112.165 113.915 112.971 114.438 113.266 115.109C113.575 115.78 113.266 116.33 112.581 116.344C111.897 116.357 111.091 115.834 110.796 115.163Z" fill="white"/>
<path d="M256.923 114.68L246.842 114.895L244.762 110.319L254.843 110.104L256.923 114.68ZM247.138 114.371L256.172 114.17L254.561 110.628L245.527 110.829L247.138 114.371Z" fill="white"/>
<path d="M252.44 110.95L245.957 111.084L247.326 114.103L253.809 113.955L252.44 110.95Z" fill="white"/>
<path d="M257.326 113.593L256.44 113.606L255.326 111.178L256.226 111.151L257.326 113.593Z" fill="white"/>
<path d="M259.568 450.52L258.655 450.533L260.521 454.626L258.816 454.666L257.863 452.586L254.843 452.64L255.796 454.733L254.091 454.773L252.225 450.681L251.312 450.694L253.541 446.441L259.568 450.52Z" fill="#EBEBEB"/>
<path d="M406.058 444.549L396.111 444.764L395.48 443.382L405.427 443.167L406.058 444.549Z" fill="#EBEBEB"/>
<path d="M407.628 447.984L397.681 448.199L397.05 446.817L406.997 446.602L407.628 447.984Z" fill="#EBEBEB"/>
<path d="M409.185 451.419L399.252 451.633L398.607 450.251L408.554 450.037L409.185 451.419Z" fill="#EBEBEB"/>
<path d="M332.296 449.058L330.806 452.063L326.631 449.178L326.927 448.709L330.363 451.084L331.585 448.615L332.296 449.058Z" fill="#EBEBEB"/>
<path d="M332.202 455.109C329.37 455.176 326.041 452.975 324.779 450.198C323.517 447.434 324.792 445.126 327.625 445.072C330.457 445.005 333.786 447.206 335.048 449.983C336.31 452.747 335.034 455.055 332.202 455.109ZM327.933 445.743C325.477 445.797 324.363 447.796 325.464 450.198C326.551 452.6 329.45 454.505 331.907 454.451C334.363 454.397 335.477 452.398 334.377 449.997C333.276 447.595 330.39 445.689 327.933 445.743Z" fill="#EBEBEB"/>
<path d="M296.483 226.099L331.907 303.84L313.302 304.282L321.893 323.147L293.999 304.698L195.431 306.832L159.98 229.037L296.483 226.099Z" fill="#F58020"/>
<path d="M220.144 267.022C221.728 270.51 220.13 273.395 216.56 273.476C212.989 273.556 208.801 270.792 207.217 267.304C205.633 263.815 207.23 260.93 210.801 260.85C214.372 260.769 218.56 263.533 220.144 267.022Z" fill="white"/>
<path d="M252.427 266.324C254.011 269.813 252.414 272.697 248.843 272.778C245.272 272.858 241.084 270.094 239.5 266.606C237.916 263.117 239.514 260.233 243.084 260.152C246.655 260.072 250.843 262.836 252.427 266.324Z" fill="white"/>
<path d="M284.697 265.626C286.281 269.115 284.684 272 281.113 272.08C277.542 272.161 273.354 269.397 271.77 265.908C270.186 262.42 271.784 259.535 275.354 259.454C278.925 259.374 283.113 262.138 284.697 265.626Z" fill="white"/>
<path d="M348.578 408.362L275.783 409.932C269.501 410.066 262.132 405.195 259.326 399.064L254.427 388.316C251.635 382.171 254.453 377.086 260.749 376.951L333.544 375.382C339.826 375.247 347.196 380.118 350.001 386.25L354.901 396.997C357.693 403.142 354.874 408.228 348.578 408.362Z" fill="#EBEBEB"/>
<path d="M346.162 403.048L273.367 404.618C267.085 404.752 259.716 399.882 256.91 393.75L252.011 383.003C249.219 376.857 252.037 371.772 258.333 371.638L331.128 370.068C337.41 369.934 344.78 374.805 347.585 380.936L352.485 391.684C355.277 397.829 352.458 402.914 346.162 403.048Z" fill="#F58020"/>
<path d="M278.347 387.967L272.428 388.101L274.763 392.932L281.408 392.784L282.24 395.36L272.75 395.575L264.696 378.951L274.146 378.736L275.408 381.339L269.206 381.473L271.166 385.512L277.086 385.378L278.334 387.954L278.347 387.967Z" fill="white"/>
<path d="M284.67 395.293L276.616 378.669L280.361 378.588C288.63 387.686 290.214 389.416 290.831 390.235H290.858C289.73 388.236 288.536 385.794 287.22 383.07L284.992 378.481L287.945 378.414L295.999 395.038L292.402 395.119C283.717 385.418 282.16 383.66 281.556 382.909H281.529C282.656 384.948 283.851 387.404 285.287 390.382L287.636 395.226L284.67 395.293Z" fill="white"/>
<path d="M302.201 394.891L289.556 378.374L293.113 378.293L298.228 385.311C299.838 387.511 301.543 389.967 302.604 391.697H302.657C302.053 390.007 301.53 387.498 300.993 385.311L299.181 378.159L302.631 378.079L306.054 394.797L302.201 394.877V394.891Z" fill="white"/>
<path d="M307.597 377.971L315.651 394.595L312.349 394.676L304.295 378.052L307.597 377.971Z" fill="white"/>
<path d="M319.651 390.275L320.765 394.475L317.463 394.555L313.678 377.837L317.96 377.743L330.336 394.26L326.873 394.341L323.92 390.181L319.651 390.275ZM322.081 387.605C319.853 384.439 318.175 382.131 317.114 380.547H317.034C317.557 382.09 318.175 384.599 318.98 387.672L322.067 387.605H322.081Z" fill="white"/>
<path d="M331.732 387.068L335.168 394.153L331.88 394.22L323.826 377.595L329.477 377.475C332.833 377.394 335.491 378.937 336.927 381.902C338.095 384.304 337.169 385.378 336.377 385.74C338.095 386.317 339.303 387.39 340.498 389.846L340.82 390.503C341.732 392.395 342.175 393.093 342.753 393.978L339.558 394.045C338.914 393.294 338.229 391.979 337.544 390.543L337.249 389.94C336.175 387.712 335.236 386.974 333.155 387.028L331.745 387.055L331.732 387.068ZM330.564 384.653L332.108 384.613C334.108 384.573 334.511 383.781 333.692 382.104C332.994 380.668 331.839 379.863 330.148 379.903L328.269 379.944L330.551 384.653H330.564Z" fill="white"/>
<path d="M173.712 142.762C172.665 140.817 171.645 138.938 171.108 137.865C171.551 139.448 172.383 143.715 173.135 147.337L172.115 147.364C169.645 144.466 165.457 139.703 164.101 138.066C164.826 139.26 166.061 141.461 167 143.218L169.282 147.445L168.195 147.472L162.557 137.06L164.248 137.019C167.242 140.401 170.96 144.627 171.739 145.58C171.43 144.278 170.625 140.079 169.953 136.872L171.658 136.832L177.296 147.244L176.142 147.27L173.712 142.789V142.762Z" fill="white"/>
<path d="M183.283 142.145L178.276 142.279L180.222 145.888L185.739 145.741L186.249 146.989L179.712 147.163L174.074 136.751L180.517 136.577L181.189 137.824L175.927 137.972L177.591 141.045L182.598 140.911L183.269 142.158L183.283 142.145Z" fill="white"/>
<path d="M188.142 146.922L182.504 136.51L183.914 136.47C187.552 139.676 192.545 143.889 193.606 144.936H193.632C192.827 143.581 191.941 141.944 191.028 140.253L188.907 136.335L190.008 136.309L195.646 146.721L194.317 146.761C191.954 144.721 185.645 139.193 184.397 137.999H184.37C185.162 139.341 185.954 140.817 186.948 142.655L189.243 146.908L188.142 146.935V146.922Z" fill="white"/>
<path d="M196.921 143.621C197.887 144.829 199.069 145.674 200.706 145.62C202.344 145.567 202.545 144.762 202.022 143.795C201.471 142.776 200.666 142.159 198.277 141.756C195.485 141.286 194.344 140.32 193.579 138.911C192.585 137.073 193.417 136 195.23 135.946C197.941 135.879 199.539 137.623 200.21 138.683L199.015 138.71C198.465 138.013 197.606 137.073 195.847 137.127C194.652 137.154 194.156 137.69 194.72 138.737C195.176 139.582 195.807 140.119 197.914 140.468C201.27 141.031 202.384 142.185 203.163 143.621C204.062 145.285 203.767 146.734 201.257 146.801C198.921 146.868 197.028 145.567 195.726 143.661L196.934 143.634L196.921 143.621Z" fill="white"/>
<path d="M206.304 143.232L206.935 146.412L205.7 146.439L203.66 135.933L205.096 135.893L214.466 146.197L213.177 146.237L210.345 143.111L206.304 143.219V143.232ZM209.284 141.877C206.707 139.032 205.499 137.677 204.921 136.979C205.123 137.664 205.512 139.462 206.009 141.971L209.297 141.877H209.284Z" fill="white"/>
<path d="M217.177 142.507C218.559 145.057 218.466 146.318 216.6 146.372C216.13 146.372 215.741 146.345 215.418 146.278L214.747 145.03C215.069 145.084 215.472 145.124 215.861 145.11C217.043 145.084 216.774 143.97 216.036 142.628L212.304 135.718L213.485 135.691L217.177 142.521V142.507Z" fill="white"/>
<path d="M225.003 141.018L219.996 141.152L221.942 144.761L227.459 144.614L227.969 145.862L221.432 146.036L215.794 135.624L222.238 135.45L222.909 136.698L217.647 136.845L219.311 139.918L224.318 139.784L224.989 141.031L225.003 141.018Z" fill="white"/>
<path d="M326.511 550.332C326.511 550.332 319.907 447.809 220.95 388.558C208.546 381.124 178.8 321.551 155.779 300.284C131.805 278.132 105.549 282.935 112.139 312.762C120.153 348.989 165.216 475.543 165.216 475.543L326.498 550.346L326.511 550.332Z" fill="#D8AB87"/>
<path d="M145.523 292.461C136.691 287.805 120.918 281.7 115.133 293.4C111.992 299.734 113.388 306.67 115.106 313.218C129.281 365.694 150.423 423.161 165.229 475.516C150.423 440.658 137.697 405.021 126.247 368.941C120.623 350.814 115.16 332.674 111.495 313.996C110.072 306.805 109.173 298.996 112.972 292.287C119.831 279.768 136.395 286.276 145.537 292.461H145.523Z" fill="#263238"/>
<path d="M503.243 314.707C493.095 318.612 463.698 347.553 463.993 350.237C467.295 380.252 460.731 410.508 445.804 415.043C426.622 420.867 421.428 354.155 423.468 339.1C425.455 324.395 456.275 278.118 470.02 268.538C483.752 258.958 556.561 225.642 556.561 225.642L581.354 291.67C581.354 291.67 511.096 311.702 503.257 314.721L503.243 314.707Z" fill="#D8AB87"/>
<path opacity="0.2" d="M503.243 314.707C493.095 318.612 463.698 347.553 463.993 350.237C467.295 380.252 460.731 410.508 445.804 415.043C426.622 420.867 421.428 354.155 423.468 339.1C425.455 324.395 456.275 278.118 470.02 268.538C483.752 258.958 556.561 225.642 556.561 225.642L581.354 291.67C581.354 291.67 511.096 311.702 503.257 314.721L503.243 314.707Z" fill="black"/>
<path d="M444.932 313.688C436.287 321.148 417.454 360.126 418.703 362.662C432.569 391.08 436.784 423.242 423.629 433.01C406.729 445.568 378.03 381.621 374.714 366.07C371.479 350.868 385.587 294.286 395.775 279.956C405.964 265.626 466.128 206.925 466.128 206.925L513.955 263.211C513.955 263.211 451.603 307.918 444.932 313.674V313.688Z" fill="#D8AB87"/>
<path opacity="0.1" d="M444.932 313.688C436.287 321.148 417.454 360.126 418.703 362.662C432.569 391.08 436.784 423.242 423.629 433.01C406.729 445.568 378.03 381.621 374.714 366.07C371.479 350.868 385.587 294.286 395.775 279.956C405.964 265.626 466.128 206.925 466.128 206.925L513.955 263.211C513.955 263.211 451.603 307.918 444.932 313.674V313.688Z" fill="black"/>
<path d="M620 195.587C620 195.587 504.975 173.435 464.933 188.516C457.765 191.213 360.525 258.636 352.539 269.799C333.41 296.554 281.22 364.594 292.187 376.589C320.054 407.06 400.89 316.519 400.89 316.519C426.488 303.276 461.818 279.487 462.597 279.487C544.856 279.782 518.063 375.744 620 381.433V195.587Z" fill="#D8AB87"/>
<path d="M620 403.196C620 403.196 557.138 405.772 503.915 385.82C503.915 385.82 437.308 398.889 401.83 389.712C370.191 381.527 385.346 357.295 412.85 343.985C448.637 326.663 620 280.413 620 280.413V403.196Z" fill="#D8AB87"/>
<path d="M416.77 392.207C401.319 391.872 374.432 385.565 384.218 364.621C390.111 353.591 401.829 347.191 412.192 341.542C429.146 332.526 447.643 327.186 465.859 321.577C493.202 313.554 520.747 306.254 548.628 300.284C522.707 309.126 493.605 318.102 467.362 326.461C445.026 333.599 422.246 340.362 402.152 352.639C393.614 357.966 381.345 367.156 386.084 378.441C391.386 387.833 406.756 390.744 416.77 392.194V392.207Z" fill="#263238"/>
<path d="M295.583 328.97C297.422 336.819 297.435 345.044 295.583 352.894C293.731 345.044 293.744 336.819 295.583 328.97Z" fill="#263238"/>
<path d="M256.091 344.615C262.937 348.869 268.776 354.678 273.018 361.535C266.159 357.295 260.347 351.472 256.091 344.615Z" fill="#263238"/>
<path d="M254.883 423.067C259.139 416.224 264.951 410.387 271.81 406.147C267.568 413.004 261.743 418.814 254.883 423.067Z" fill="#263238"/>
<path d="M293.878 439.919C292.039 432.07 292.026 423.845 293.878 415.996C295.731 423.845 295.717 432.07 293.878 439.919Z" fill="#263238"/>
<path d="M333.37 424.275C326.524 420.022 320.685 414.212 316.443 407.355C323.302 411.595 329.115 417.419 333.37 424.275Z" fill="#263238"/>
<path d="M371.09 381.996C363.237 383.834 355.008 383.848 347.156 381.996C355.008 380.144 363.237 380.158 371.09 381.996Z" fill="#263238"/>
<path d="M239.218 383.593C247.071 381.754 255.299 381.741 263.152 383.593C255.299 385.444 247.071 385.431 239.218 383.593Z" fill="#263238"/>
<path d="M315.275 403.719C413.28 431.48 403.897 582.092 473.578 559.483C521.029 544.093 492.142 473.316 445.845 498.299C399.548 523.283 383.023 580.602 311.396 577.033C239.769 573.464 193.78 425.483 125.804 401.948" stroke="#263238" stroke-width="0.75" stroke-miterlimit="10"/>
<path d="M440.677 134.658C311.597 262.151 91.5608 336.954 55.0223 277.541C40.9009 254.584 81.1174 225.025 105.588 208.186" stroke="#263238" stroke-width="0.75" stroke-miterlimit="10"/>
<path d="M431.012 106.28L424.26 150.397L450.798 119.563L562.319 51.9526L431.012 106.28Z" fill="#F58020"/>
<path opacity="0.4" d="M431.012 106.28L424.26 150.397L450.798 119.563L562.319 51.9526L431.012 106.28Z" fill="white"/>
<path d="M456.744 128.339L424.26 150.397L450.798 119.563L456.744 128.339Z" fill="#F58020"/>
<path opacity="0.1" d="M456.744 128.339L424.26 150.397L450.798 119.563L456.744 128.339Z" fill="black"/>
<path d="M450.798 119.563L562.319 51.9526L482.933 167.853L450.798 119.563Z" fill="#F58020"/>
<path opacity="0.7" d="M450.798 119.563L562.319 51.9526L482.933 167.853L450.798 119.563Z" fill="white"/>
<path d="M431.012 106.28L374.593 84.0204L562.32 51.9526L431.012 106.28Z" fill="#F58020"/>
<path opacity="0.7" d="M431.012 106.28L374.593 84.0204L562.32 51.9526L431.012 106.28Z" fill="white"/>
<path d="M123.119 375.234L138.972 408.026L110.877 390.342L7.67822 364.352L123.119 375.234Z" fill="#F58020"/>
<path opacity="0.4" d="M123.119 375.234L138.972 408.026L110.877 390.342L7.67822 364.352L123.119 375.234Z" fill="white"/>
<path d="M108.34 398.62L138.973 408.026L110.877 390.342L108.34 398.62Z" fill="#F58020"/>
<path opacity="0.1" d="M108.34 398.62L138.973 408.026L110.877 390.342L108.34 398.62Z" fill="black"/>
<path d="M110.877 390.342L7.67822 364.352L97.4002 435.706L110.877 390.342Z" fill="#F58020"/>
<path opacity="0.7" d="M110.877 390.342L7.67822 364.352L97.4002 435.706L110.877 390.342Z" fill="white"/>
<path d="M123.119 375.234L161.765 344.347L7.67822 364.352L123.119 375.234Z" fill="#F58020"/>
<path opacity="0.7" d="M123.119 375.234L161.765 344.347L7.67822 364.352L123.119 375.234Z" fill="white"/>
</g>
<defs>
<clipPath id="clip0_220_6063">
<rect width="620" height="630.877" fill="white"/>
</clipPath>
</defs>
</svg>
