<svg width="507" height="388" viewBox="0 0 507 388" fill="none" xmlns="http://www.w3.org/2000/svg">
<path d="M366.327 169.853C443.601 169.853 506.809 232.741 506.81 309.622V360.05C506.81 375.152 494.417 387.481 479.238 387.481C464.059 387.481 451.666 375.152 451.666 360.05V309.622C451.666 262.935 413.253 224.716 366.327 224.716C319.402 224.716 280.987 262.935 280.987 309.622V360.05C280.987 375.152 268.594 387.481 253.415 387.481C238.236 387.481 225.844 375.152 225.844 360.05V309.622C225.844 232.741 289.043 169.853 366.327 169.853ZM140.474 169.853C179.414 169.853 214.778 185.831 240.293 211.509C227.971 227.125 218.517 245.08 212.711 264.558C197.562 240.665 170.801 224.706 140.483 224.706C93.5679 224.706 55.1436 262.925 55.1436 309.612V360.04C55.1434 375.142 42.7512 387.472 27.5723 387.472C12.3932 387.472 0.000201051 375.142 0 360.04V309.612C0 232.731 63.1995 169.843 140.483 169.843L140.474 169.853ZM140.474 0C181.198 0.000130533 214.211 32.8459 214.211 73.3633C214.211 113.881 181.198 146.716 140.474 146.716C99.7495 146.716 66.7463 113.871 66.7461 73.3633C66.7461 32.8559 99.7595 0 140.474 0ZM366.327 0C407.051 0.000212016 440.054 32.8459 440.054 73.3633C440.054 113.88 407.041 146.716 366.327 146.716C325.613 146.716 292.6 113.871 292.6 73.3633C292.6 32.8559 325.603 0 366.327 0Z" fill="#6A2771"/>
</svg>
