<svg width="155" height="88" viewBox="0 0 155 88" fill="none" xmlns="http://www.w3.org/2000/svg">
<g clip-path="url(#clip0_344_2)">
<path fill-rule="evenodd" clip-rule="evenodd" d="M31.6379 60.8119V60.0873C31.6379 49.8764 26.4153 44.8012 15.7886 44.8012C5.1619 44.8012 0 49.8764 0 60.0873V87.6382H5.95098V72.2311H6.43718C8.74464 74.6478 11.2344 76.098 16.761 76.098C26.8417 76.098 31.6389 71.2042 31.6389 60.8119H31.6379ZM5.95098 60.6305V60.2677C5.95098 52.8363 8.86619 49.5741 15.7886 49.5741C22.711 49.5741 25.6869 52.8363 25.6869 60.2677V60.6305C25.6869 68.0619 22.711 71.3242 15.7886 71.3242C8.86619 71.3242 5.95098 68.0619 5.95098 60.6305ZM66.1921 73.9827V45.3444H60.2411V62.9263C60.2411 68.7865 57.569 71.3242 51.3749 71.3242C45.1808 71.3242 42.5695 68.7865 42.5695 62.9263V45.3444H36.6185V63.1681C36.6185 72.1102 40.7482 76.098 49.8565 76.098C54.7145 76.098 57.8111 74.9501 59.7549 72.5939H60.2411V75.3734C60.2411 80.8114 57.4474 83.2281 49.8565 83.2281C46.8805 83.2281 43.0547 82.8653 40.0189 82.3221V86.9136C43.6624 87.6382 47.0021 88.001 50.3427 88.001C61.7594 88.001 66.1921 83.5304 66.1921 73.9837V73.9827ZM71.6578 56.5218V75.5538H77.6088V56.7636C77.6088 51.7489 80.2809 49.5741 85.2605 49.5741C90.2401 49.5741 92.8514 51.7489 92.8514 56.7636V75.5538H98.8024V56.7636C98.8024 51.7489 101.474 49.5741 106.454 49.5741C111.434 49.5741 114.045 51.7489 114.045 56.7636V75.5538H119.996V56.5218C119.996 48.3657 115.503 44.8002 106.454 44.8002C101.353 44.8002 98.4377 46.0085 96.0695 49.2103H95.5833C93.2151 46.0085 90.3606 44.8002 85.2595 44.8002C76.1502 44.8002 71.6568 48.3648 71.6568 56.5218H71.6578ZM154.792 59.3617C154.792 50.0578 149.995 44.8012 139.914 44.8012C129.834 44.8012 124.551 49.8764 124.551 60.0873V60.8119C124.551 71.1437 129.774 76.098 140.947 76.098C144.348 76.098 148.417 75.6143 152.364 74.7083V70.1168C149.388 70.7809 144.53 71.3251 141.434 71.3251C134.632 71.3251 131.292 68.848 130.625 63.0482H152.183C154.369 63.0482 154.794 62.1421 154.794 59.3627L154.792 59.3617ZM130.563 58.4557C130.988 52.2931 133.842 49.5741 139.914 49.5741C145.987 49.5741 148.78 52.6549 148.841 58.4557H130.563Z" fill="#000002"/>
<path fill-rule="evenodd" clip-rule="evenodd" d="M12.9371 22.4932H0.0617676V24.3657H5.40991V37.793H7.5674V24.3657H12.9381V22.4932H12.9371ZM17.4589 23.8176C17.7804 22.9272 18.3999 22.2875 19.6389 22.2875C20.878 22.2875 21.4984 22.9272 21.8425 23.8176L27.1671 37.793H24.7342L23.4491 34.3445H15.8523L14.5672 37.793H12.1343L17.4589 23.8176ZM16.5404 32.472H22.76L19.9595 24.9821C19.8673 24.6856 19.7066 24.6622 19.638 24.6622C19.5919 24.6622 19.4311 24.6846 19.3164 24.9821L16.5394 32.472H16.5404ZM28.8423 22.4932V34.2987C28.8423 36.3077 30.3117 37.792 32.3084 37.792H39.8591V35.9195H32.8593C31.7801 35.9195 30.9998 35.075 30.9998 33.933V22.4923H28.8423V22.4932ZM41.9706 22.4932V34.2987C41.9706 36.3077 43.4399 37.792 45.4367 37.792H53.1942V35.9195H45.9875C44.9083 35.9195 44.128 35.075 44.128 33.933V31.0784H52.8266V29.2059H44.128V24.3647H53.1942V22.4923H41.9706V22.4932ZM55.8791 22.4932V37.793H57.9679V25.8735L66.7586 37.793H68.8475V22.4932H66.7586V34.4128L57.9679 22.4932H55.8791ZM84.0862 22.4932H71.2099V24.3657H76.558V37.793H78.7155V24.3657H84.0862V22.4932ZM92.6701 37.9978C87.7817 37.9978 85.3487 35.3949 85.3487 30.1421C85.3487 24.8894 87.7817 22.2865 92.6701 22.2865C97.5585 22.2865 100.015 24.8894 100.015 30.1421C100.015 35.3949 97.582 37.9978 92.6701 37.9978ZM87.5523 30.1421C87.5523 34.0695 89.2736 36.0336 92.6701 36.0336C96.0666 36.0336 97.8114 34.0695 97.8114 30.1421C97.8114 26.2148 96.0901 24.2506 92.6701 24.2506C89.25 24.2506 87.5523 26.2148 87.5523 30.1421Z" fill="#000002"/>
<path fill-rule="evenodd" clip-rule="evenodd" d="M119.562 0C123.501 0 126.695 3.17737 126.695 7.09692C126.695 11.0165 123.501 14.1929 119.562 14.1929C115.622 14.1929 112.43 11.0155 112.43 7.09692C112.43 3.17835 115.623 0 119.562 0Z" fill="#F58020"/>
<path fill-rule="evenodd" clip-rule="evenodd" d="M141.41 0C145.35 0 148.542 3.17737 148.542 7.09692C148.542 11.0165 145.349 14.1929 141.41 14.1929C137.472 14.1929 134.278 11.0155 134.278 7.09692C134.278 3.17835 137.471 0 141.41 0Z" fill="#6A2771"/>
<path fill-rule="evenodd" clip-rule="evenodd" d="M119.562 16.4311C123.329 16.4311 126.75 17.9768 129.218 20.4608C128.026 21.9715 127.111 23.7084 126.55 25.5926C125.084 23.2812 122.496 21.7374 119.563 21.7374C115.024 21.7374 111.307 25.4346 111.307 29.951V34.8292C111.307 36.2901 110.108 37.4829 108.64 37.4829C107.172 37.4829 105.973 36.2901 105.973 34.8292V29.951C105.973 22.5137 112.086 16.4301 119.563 16.4301L119.562 16.4311Z" fill="#6A2771"/>
<path fill-rule="evenodd" clip-rule="evenodd" d="M141.41 16.4311C148.885 16.4311 155 22.5147 155 29.952V34.8302C155 36.2911 153.801 37.4838 152.333 37.4838C150.864 37.4838 149.666 36.2911 149.666 34.8302V29.952C149.666 25.4356 145.95 21.7384 141.41 21.7384C136.871 21.7384 133.155 25.4356 133.155 29.952V34.8302C133.155 36.2911 131.956 37.4838 130.487 37.4838C129.019 37.4838 127.82 36.2911 127.82 34.8302V29.952C127.82 22.5147 133.934 16.4311 141.41 16.4311Z" fill="#F58020"/>
</g>
<defs>
<clipPath id="clip0_344_2">
<rect width="155" height="88" fill="white"/>
</clipPath>
</defs>
</svg>
