<svg width="156" height="89" viewBox="0 0 156 89" fill="none" xmlns="http://www.w3.org/2000/svg">
<g clip-path="url(#clip0_41_37)">
<path fill-rule="evenodd" clip-rule="evenodd" d="M31.9665 61.6889V60.9643C31.9665 50.7534 26.7439 45.6782 16.1172 45.6782C5.49051 45.6782 0.328613 50.7534 0.328613 60.9643V88.5152H6.27959V73.1082H6.76579C9.07325 75.5249 11.563 76.9751 17.0896 76.9751C27.1703 76.9751 31.9675 72.0812 31.9675 61.6889H31.9665ZM6.27959 61.5076V61.1448C6.27959 53.7133 9.1948 50.4511 16.1172 50.4511C23.0396 50.4511 26.0156 53.7133 26.0156 61.1448V61.5076C26.0156 68.939 23.0396 72.2012 16.1172 72.2012C9.1948 72.2012 6.27959 68.939 6.27959 61.5076ZM66.5207 74.8597V46.2214H60.5697V63.8033C60.5697 69.6636 57.8976 72.2012 51.7035 72.2012C45.5094 72.2012 42.8981 69.6636 42.8981 63.8033V46.2214H36.9471V64.0452C36.9471 72.9873 41.0768 76.9751 50.1851 76.9751C55.0431 76.9751 58.1397 75.8272 60.0835 73.471H60.5697V76.2504C60.5697 81.6885 57.776 84.1051 50.1851 84.1051C47.2091 84.1051 43.3833 83.7423 40.3475 83.1991V87.7906C43.991 88.5152 47.3307 88.878 50.6713 88.878C62.0881 88.878 66.5207 84.4075 66.5207 74.8607V74.8597ZM71.9864 57.3988V76.4309H77.9374V57.6407C77.9374 52.6259 80.6095 50.4511 85.5891 50.4511C90.5687 50.4511 93.18 52.6259 93.18 57.6407V76.4309H99.131V57.6407C99.131 52.6259 101.803 50.4511 106.783 50.4511C111.762 50.4511 114.374 52.6259 114.374 57.6407V76.4309H120.325V57.3988C120.325 49.2428 115.831 45.6772 106.783 45.6772C101.682 45.6772 98.7663 46.8856 96.3981 50.0873H95.9119C93.5437 46.8856 90.6892 45.6772 85.5881 45.6772C76.4788 45.6772 71.9855 49.2418 71.9855 57.3988H71.9864ZM155.121 60.2387C155.121 50.9348 150.324 45.6782 140.243 45.6782C130.162 45.6782 124.88 50.7534 124.88 60.9643V61.6889C124.88 72.0208 130.102 76.9751 141.276 76.9751C144.676 76.9751 148.745 76.4913 152.693 75.5853V70.9938C149.717 71.658 144.859 72.2022 141.762 72.2022C134.96 72.2022 131.621 69.725 130.953 63.9252H152.511C154.697 63.9252 155.123 63.0192 155.123 60.2397L155.121 60.2387ZM130.891 59.3327C131.317 53.1701 134.17 50.4511 140.243 50.4511C146.315 50.4511 149.109 53.5319 149.17 59.3327H130.891Z" fill="white"/>
<path fill-rule="evenodd" clip-rule="evenodd" d="M13.2657 23.3703H0.390366V25.2428H5.73851V38.6701H7.89599V25.2428H13.2667V23.3703H13.2657ZM17.7875 24.6947C18.109 23.8043 18.7285 23.1645 19.9675 23.1645C21.2066 23.1645 21.827 23.8043 22.1711 24.6947L27.4957 38.6701H25.0628L23.7777 35.2216H16.1809L14.8958 38.6701H12.4629L17.7875 24.6947ZM16.869 33.3491H23.0886L20.2881 25.8592C20.1959 25.5627 20.0352 25.5393 19.9666 25.5393C19.9205 25.5393 19.7597 25.5617 19.645 25.8592L16.868 33.3491H16.869ZM29.1709 23.3703V35.1758C29.1709 37.1848 30.6403 38.6691 32.637 38.6691H40.1877V36.7966H33.1879C32.1087 36.7966 31.3284 35.9521 31.3284 34.81V23.3694H29.1709V23.3703ZM42.2992 23.3703V35.1758C42.2992 37.1848 43.7685 38.6691 45.7653 38.6691H53.5228V36.7966H46.3161C45.2369 36.7966 44.4566 35.9521 44.4566 34.81V31.9555H53.1552V30.083H44.4566V25.2418H53.5228V23.3694H42.2992V23.3703ZM56.2077 23.3703V38.6701H58.2965V26.7506L67.0872 38.6701H69.1761V23.3703H67.0872V35.2899L58.2965 23.3703H56.2077ZM84.4148 23.3703H71.5385V25.2428H76.8866V38.6701H79.0441V25.2428H84.4148V23.3703ZM92.9987 38.8749C88.1103 38.8749 85.6773 36.2719 85.6773 31.0192C85.6773 25.7665 88.1103 23.1636 92.9987 23.1636C97.8871 23.1636 100.344 25.7665 100.344 31.0192C100.344 36.2719 97.9106 38.8749 92.9987 38.8749ZM87.8809 31.0192C87.8809 34.9466 89.6022 36.9107 92.9987 36.9107C96.3952 36.9107 98.14 34.9466 98.14 31.0192C98.14 27.0919 96.4187 25.1277 92.9987 25.1277C89.5786 25.1277 87.8809 27.0919 87.8809 31.0192Z" fill="white"/>
<path fill-rule="evenodd" clip-rule="evenodd" d="M119.89 0.876953C123.83 0.876953 127.023 4.05433 127.023 7.97387C127.023 11.8934 123.83 15.0698 119.89 15.0698C115.951 15.0698 112.758 11.8924 112.758 7.97387C112.758 4.0553 115.952 0.876953 119.89 0.876953Z" fill="#E4E4E4"/>
<path fill-rule="evenodd" clip-rule="evenodd" d="M141.739 0.876953C145.678 0.876953 148.871 4.05433 148.871 7.97387C148.871 11.8934 145.677 15.0698 141.739 15.0698C137.8 15.0698 134.607 11.8924 134.607 7.97387C134.607 4.0553 137.799 0.876953 141.739 0.876953Z" fill="#F58020"/>
<path fill-rule="evenodd" clip-rule="evenodd" d="M119.89 17.3081C123.657 17.3081 127.078 18.8539 129.547 21.3378C128.355 22.8485 127.44 24.5854 126.878 26.4696C125.413 24.1583 122.824 22.6145 119.891 22.6145C115.353 22.6145 111.636 26.3116 111.636 30.828V35.7063C111.636 37.1672 110.437 38.3599 108.969 38.3599C107.5 38.3599 106.301 37.1672 106.301 35.7063V30.828C106.301 23.3908 112.415 17.3071 119.891 17.3071L119.89 17.3081Z" fill="#F58020"/>
<path fill-rule="evenodd" clip-rule="evenodd" d="M141.739 17.3081C149.214 17.3081 155.329 23.3917 155.329 30.829V35.7072C155.329 37.1682 154.13 38.3609 152.661 38.3609C151.193 38.3609 149.994 37.1682 149.994 35.7072V30.829C149.994 26.3126 146.278 22.6154 141.739 22.6154C137.199 22.6154 133.483 26.3126 133.483 30.829V35.7072C133.483 37.1682 132.284 38.3609 130.816 38.3609C129.348 38.3609 128.149 37.1682 128.149 35.7072V30.829C128.149 23.3917 134.262 17.3081 141.739 17.3081Z" fill="#E4E4E4"/>
</g>
<defs>
<clipPath id="clip0_41_37">
<rect width="155" height="88" fill="white" transform="translate(0.328613 0.876953)"/>
</clipPath>
</defs>
</svg>
